G04 Layer_Color=16711935*
%FSLAX25Y25*%
%MOIN*%
G70*
G01*
G75*
%ADD13C,0.01575*%
%ADD15C,0.00787*%
%ADD16C,0.00984*%
%ADD27R,0.03753X0.10642*%
%ADD30R,0.04528X0.04528*%
%ADD31C,0.04528*%
%ADD32R,0.07296X0.07296*%
%ADD33C,0.07296*%
%ADD34C,0.04934*%
%ADD35C,0.26772*%
%ADD36R,0.07296X0.16548*%
%ADD37R,0.04934X0.42808*%
%ADD38R,0.89383X0.02769*%
G36*
X1121080Y-83717D02*
Y-84003D01*
Y-84290D01*
Y-84576D01*
Y-84862D01*
Y-85149D01*
Y-85435D01*
Y-85721D01*
Y-86007D01*
Y-86294D01*
Y-86580D01*
Y-86866D01*
Y-87153D01*
Y-87439D01*
Y-87725D01*
Y-88012D01*
Y-88298D01*
Y-88584D01*
Y-88871D01*
Y-89157D01*
Y-89443D01*
X1120793D01*
Y-89730D01*
Y-90016D01*
Y-90302D01*
Y-90588D01*
Y-90875D01*
X1120507D01*
Y-91161D01*
Y-91448D01*
Y-91734D01*
Y-92020D01*
X1120221D01*
Y-92306D01*
Y-92593D01*
Y-92879D01*
Y-93165D01*
X1119934D01*
Y-93452D01*
Y-93738D01*
Y-94024D01*
X1119648D01*
Y-94311D01*
Y-94597D01*
Y-94883D01*
X1119362D01*
Y-95170D01*
Y-95456D01*
Y-95742D01*
X1119075D01*
Y-96029D01*
Y-96315D01*
Y-96601D01*
X1118789D01*
Y-96887D01*
Y-97174D01*
X1118503D01*
Y-97460D01*
Y-97746D01*
X1118217D01*
Y-98033D01*
Y-98319D01*
Y-98605D01*
X1117930D01*
Y-98892D01*
Y-99178D01*
X1117644D01*
Y-99464D01*
Y-99751D01*
Y-100037D01*
X1117358D01*
Y-100323D01*
Y-100610D01*
X1117071D01*
Y-100896D01*
Y-101182D01*
Y-101468D01*
X1116785D01*
Y-101755D01*
Y-102041D01*
X1116499D01*
Y-102327D01*
Y-102614D01*
Y-102900D01*
X1116212D01*
Y-103186D01*
Y-103473D01*
X1115926D01*
Y-103759D01*
Y-104045D01*
Y-104332D01*
X1115640D01*
Y-104618D01*
Y-104904D01*
X1115353D01*
Y-105191D01*
Y-105477D01*
Y-105763D01*
X1115067D01*
Y-106049D01*
Y-106336D01*
X1114781D01*
Y-106622D01*
Y-106908D01*
Y-107195D01*
X1114494D01*
Y-107481D01*
Y-107767D01*
X1114208D01*
Y-108054D01*
Y-108340D01*
Y-108626D01*
X1113922D01*
Y-108913D01*
Y-109199D01*
X1113636D01*
Y-109485D01*
Y-109772D01*
Y-110058D01*
X1113349D01*
Y-110344D01*
Y-110630D01*
X1113063D01*
Y-110917D01*
Y-111203D01*
Y-111489D01*
X1112776D01*
Y-111776D01*
Y-112062D01*
X1112490D01*
Y-112348D01*
Y-112635D01*
Y-112921D01*
X1112204D01*
Y-113207D01*
Y-113494D01*
X1111918D01*
Y-113780D01*
Y-114066D01*
Y-114353D01*
X1111631D01*
Y-114639D01*
Y-114925D01*
X1111345D01*
Y-115211D01*
Y-115498D01*
Y-115784D01*
X1111059D01*
Y-116070D01*
Y-116357D01*
X1110772D01*
Y-116643D01*
Y-116929D01*
Y-117216D01*
X1110486D01*
Y-117502D01*
Y-117788D01*
X1110200D01*
Y-118075D01*
Y-118361D01*
Y-118647D01*
X1109913D01*
Y-118933D01*
Y-119220D01*
X1109627D01*
Y-119506D01*
Y-119792D01*
Y-120079D01*
X1109341D01*
Y-120365D01*
Y-120651D01*
X1109054D01*
Y-120938D01*
Y-121224D01*
X1108768D01*
Y-121510D01*
Y-121797D01*
X1108482D01*
Y-122083D01*
Y-122369D01*
Y-122656D01*
X1108195D01*
Y-122942D01*
X1107909D01*
Y-123228D01*
Y-123514D01*
Y-123801D01*
X1107623D01*
Y-124087D01*
X1107337D01*
Y-124373D01*
Y-124660D01*
X1107050D01*
Y-124946D01*
Y-125232D01*
X1106764D01*
Y-125519D01*
Y-125805D01*
X1106478D01*
Y-126091D01*
Y-126378D01*
X1106191D01*
Y-126664D01*
X1105905D01*
Y-126950D01*
Y-127237D01*
X1105619D01*
Y-127523D01*
Y-127809D01*
X1105332D01*
Y-128095D01*
X1105046D01*
Y-128382D01*
X1104760D01*
Y-128668D01*
Y-128954D01*
X1104473D01*
Y-129241D01*
X1104187D01*
Y-129527D01*
Y-129813D01*
X1103901D01*
Y-130100D01*
X1103615D01*
Y-130386D01*
X1103328D01*
Y-130672D01*
Y-130959D01*
X1103042D01*
Y-131245D01*
X1102756D01*
Y-131531D01*
X1102469D01*
Y-131818D01*
X1102183D01*
Y-132104D01*
X1101897D01*
Y-132390D01*
Y-132676D01*
X1101610D01*
Y-132963D01*
X1101324D01*
Y-133249D01*
X1101038D01*
Y-133535D01*
X1100751D01*
Y-133822D01*
X1100465D01*
Y-134108D01*
X1100179D01*
Y-134394D01*
X1099892D01*
Y-134681D01*
X1099320D01*
Y-134967D01*
X1099034D01*
Y-135253D01*
X1098747D01*
Y-135540D01*
X1098461D01*
Y-135826D01*
X1098175D01*
Y-136112D01*
X1097602D01*
Y-136399D01*
X1097316D01*
Y-136685D01*
X1096743D01*
Y-136971D01*
X1096457D01*
Y-137258D01*
X1095884D01*
Y-137544D01*
X1095598D01*
Y-137830D01*
X1095025D01*
Y-138117D01*
X1094452D01*
Y-138403D01*
X1093880D01*
Y-138689D01*
X1093307D01*
Y-138975D01*
X1092735D01*
Y-139262D01*
X1091876D01*
Y-139548D01*
X1091303D01*
Y-139834D01*
X1090444D01*
Y-140121D01*
X1089299D01*
Y-140407D01*
X1088154D01*
Y-140693D01*
X1086436D01*
Y-140980D01*
X1084432D01*
Y-141266D01*
X1084145D01*
Y-140980D01*
Y-140693D01*
Y-140407D01*
Y-140121D01*
Y-139834D01*
Y-139548D01*
Y-139262D01*
Y-138975D01*
Y-138689D01*
Y-138403D01*
Y-138117D01*
Y-137830D01*
Y-137544D01*
Y-137258D01*
Y-136971D01*
Y-136685D01*
Y-136399D01*
Y-136112D01*
Y-135826D01*
Y-135540D01*
Y-135253D01*
Y-134967D01*
Y-134681D01*
Y-134394D01*
Y-134108D01*
Y-133822D01*
Y-133535D01*
Y-133249D01*
Y-132963D01*
Y-132676D01*
Y-132390D01*
Y-132104D01*
Y-131818D01*
X1084718D01*
Y-131531D01*
X1085291D01*
Y-131245D01*
X1085863D01*
Y-130959D01*
X1086436D01*
Y-130672D01*
X1087008D01*
Y-130386D01*
X1087581D01*
Y-130100D01*
X1087867D01*
Y-129813D01*
X1088440D01*
Y-129527D01*
X1088726D01*
Y-129241D01*
X1089299D01*
Y-128954D01*
X1089585D01*
Y-128668D01*
X1089872D01*
Y-128382D01*
X1090444D01*
Y-128095D01*
X1090730D01*
Y-127809D01*
X1091017D01*
Y-127523D01*
X1091303D01*
Y-127237D01*
X1091589D01*
Y-126950D01*
X1091876D01*
Y-126664D01*
X1092162D01*
Y-126378D01*
X1092448D01*
Y-126091D01*
X1092735D01*
Y-125805D01*
X1093021D01*
Y-125519D01*
X1093307D01*
Y-125232D01*
X1093594D01*
Y-124946D01*
Y-124660D01*
X1093880D01*
Y-124373D01*
X1094166D01*
Y-124087D01*
X1094452D01*
Y-123801D01*
Y-123514D01*
X1094739D01*
Y-123228D01*
X1095025D01*
Y-122942D01*
Y-122656D01*
X1095311D01*
Y-122369D01*
Y-122083D01*
X1095598D01*
Y-121797D01*
X1095884D01*
Y-121510D01*
Y-121224D01*
X1096170D01*
Y-120938D01*
Y-120651D01*
X1096457D01*
Y-120365D01*
Y-120079D01*
X1094739D01*
Y-119792D01*
X1092735D01*
Y-119506D01*
X1091589D01*
Y-119220D01*
X1091017D01*
Y-118933D01*
X1090158D01*
Y-118647D01*
X1089585D01*
Y-118361D01*
X1089299D01*
Y-118075D01*
X1088726D01*
Y-117788D01*
X1088440D01*
Y-117502D01*
X1088154D01*
Y-117216D01*
X1087867D01*
Y-116929D01*
X1087581D01*
Y-116643D01*
X1087295D01*
Y-116357D01*
Y-116070D01*
X1087008D01*
Y-115784D01*
X1086722D01*
Y-115498D01*
Y-115211D01*
X1086436D01*
Y-114925D01*
Y-114639D01*
X1086149D01*
Y-114353D01*
Y-114066D01*
X1085863D01*
Y-113780D01*
Y-113494D01*
Y-113207D01*
X1085577D01*
Y-112921D01*
Y-112635D01*
Y-112348D01*
Y-112062D01*
X1085291D01*
Y-111776D01*
Y-111489D01*
Y-111203D01*
Y-110917D01*
Y-110630D01*
Y-110344D01*
Y-110058D01*
X1085004D01*
Y-109772D01*
Y-109485D01*
Y-109199D01*
Y-108913D01*
Y-108626D01*
Y-108340D01*
Y-108054D01*
Y-107767D01*
Y-107481D01*
Y-107195D01*
Y-106908D01*
Y-106622D01*
Y-106336D01*
Y-106049D01*
Y-105763D01*
X1084718D01*
Y-105477D01*
Y-105191D01*
Y-104904D01*
Y-104618D01*
Y-104332D01*
Y-104045D01*
Y-103759D01*
Y-103473D01*
Y-103186D01*
Y-102900D01*
Y-102614D01*
Y-102327D01*
Y-102041D01*
Y-101755D01*
Y-101468D01*
X1084432D01*
Y-101182D01*
Y-100896D01*
Y-100610D01*
Y-100323D01*
Y-100037D01*
Y-99751D01*
Y-99464D01*
Y-99178D01*
Y-98892D01*
Y-98605D01*
Y-98319D01*
Y-98033D01*
Y-97746D01*
Y-97460D01*
Y-97174D01*
Y-96887D01*
X1084145D01*
Y-96601D01*
Y-96315D01*
Y-96029D01*
Y-95742D01*
Y-95456D01*
Y-95170D01*
Y-94883D01*
Y-94597D01*
Y-94311D01*
Y-94024D01*
Y-93738D01*
Y-93452D01*
Y-93165D01*
Y-92879D01*
Y-92593D01*
Y-92306D01*
X1083859D01*
Y-92020D01*
Y-91734D01*
Y-91448D01*
Y-91161D01*
Y-90875D01*
Y-90588D01*
Y-90302D01*
Y-90016D01*
Y-89730D01*
Y-89443D01*
Y-89157D01*
Y-88871D01*
Y-88584D01*
Y-88298D01*
X1083573D01*
Y-88012D01*
Y-87725D01*
Y-87439D01*
Y-87153D01*
Y-86866D01*
Y-86580D01*
Y-86294D01*
Y-86007D01*
Y-85721D01*
Y-85435D01*
Y-85149D01*
Y-84862D01*
Y-84576D01*
Y-84290D01*
Y-84003D01*
Y-83717D01*
X1083286D01*
Y-83431D01*
X1097029D01*
Y-83717D01*
Y-84003D01*
Y-84290D01*
Y-84576D01*
Y-84862D01*
Y-85149D01*
Y-85435D01*
Y-85721D01*
Y-86007D01*
Y-86294D01*
Y-86580D01*
Y-86866D01*
Y-87153D01*
Y-87439D01*
X1097316D01*
Y-87725D01*
Y-88012D01*
Y-88298D01*
Y-88584D01*
Y-88871D01*
Y-89157D01*
Y-89443D01*
Y-89730D01*
Y-90016D01*
Y-90302D01*
Y-90588D01*
Y-90875D01*
Y-91161D01*
Y-91448D01*
Y-91734D01*
Y-92020D01*
Y-92306D01*
Y-92593D01*
Y-92879D01*
Y-93165D01*
Y-93452D01*
Y-93738D01*
Y-94024D01*
Y-94311D01*
Y-94597D01*
Y-94883D01*
Y-95170D01*
Y-95456D01*
Y-95742D01*
Y-96029D01*
Y-96315D01*
Y-96601D01*
Y-96887D01*
Y-97174D01*
Y-97460D01*
Y-97746D01*
Y-98033D01*
Y-98319D01*
Y-98605D01*
Y-98892D01*
Y-99178D01*
X1097602D01*
Y-99464D01*
X1097316D01*
Y-99751D01*
Y-100037D01*
X1097602D01*
Y-100323D01*
Y-100610D01*
Y-100896D01*
Y-101182D01*
Y-101468D01*
Y-101755D01*
Y-102041D01*
Y-102327D01*
Y-102614D01*
Y-102900D01*
Y-103186D01*
Y-103473D01*
Y-103759D01*
Y-104045D01*
Y-104332D01*
Y-104618D01*
Y-104904D01*
Y-105191D01*
Y-105477D01*
Y-105763D01*
Y-106049D01*
Y-106336D01*
Y-106622D01*
Y-106908D01*
Y-107195D01*
Y-107481D01*
X1097888D01*
Y-107767D01*
Y-108054D01*
Y-108340D01*
X1098175D01*
Y-108626D01*
X1098461D01*
Y-108913D01*
X1098747D01*
Y-109199D01*
X1099606D01*
Y-109485D01*
X1100465D01*
Y-109199D01*
X1100751D01*
Y-108913D01*
Y-108626D01*
Y-108340D01*
X1101038D01*
Y-108054D01*
Y-107767D01*
X1101324D01*
Y-107481D01*
Y-107195D01*
Y-106908D01*
X1101610D01*
Y-106622D01*
Y-106336D01*
Y-106049D01*
X1101897D01*
Y-105763D01*
Y-105477D01*
Y-105191D01*
X1102183D01*
Y-104904D01*
Y-104618D01*
Y-104332D01*
X1102469D01*
Y-104045D01*
Y-103759D01*
X1102756D01*
Y-103473D01*
Y-103186D01*
Y-102900D01*
X1103042D01*
Y-102614D01*
Y-102327D01*
Y-102041D01*
X1103328D01*
Y-101755D01*
Y-101468D01*
Y-101182D01*
X1103615D01*
Y-100896D01*
Y-100610D01*
X1103901D01*
Y-100323D01*
Y-100037D01*
Y-99751D01*
X1104187D01*
Y-99464D01*
Y-99178D01*
Y-98892D01*
X1104473D01*
Y-98605D01*
Y-98319D01*
Y-98033D01*
X1104760D01*
Y-97746D01*
Y-97460D01*
X1105046D01*
Y-97174D01*
Y-96887D01*
Y-96601D01*
X1105332D01*
Y-96315D01*
Y-96029D01*
Y-95742D01*
X1105619D01*
Y-95456D01*
Y-95170D01*
Y-94883D01*
X1105905D01*
Y-94597D01*
Y-94311D01*
X1106191D01*
Y-94024D01*
Y-93738D01*
Y-93452D01*
X1106478D01*
Y-93165D01*
Y-92879D01*
Y-92593D01*
X1106764D01*
Y-92306D01*
Y-92020D01*
Y-91734D01*
X1107050D01*
Y-91448D01*
Y-91161D01*
Y-90875D01*
Y-90588D01*
X1107337D01*
Y-90302D01*
Y-90016D01*
Y-89730D01*
Y-89443D01*
X1107623D01*
Y-89157D01*
Y-88871D01*
Y-88584D01*
Y-88298D01*
Y-88012D01*
X1107909D01*
Y-87725D01*
Y-87439D01*
Y-87153D01*
Y-86866D01*
Y-86580D01*
Y-86294D01*
X1108195D01*
Y-86007D01*
Y-85721D01*
Y-85435D01*
Y-85149D01*
Y-84862D01*
Y-84576D01*
Y-84290D01*
Y-84003D01*
Y-83717D01*
Y-83431D01*
X1121080D01*
Y-83717D01*
D02*
G37*
G36*
X1063244Y-66252D02*
Y-66538D01*
X1062958D01*
Y-66825D01*
Y-67111D01*
Y-67397D01*
Y-67684D01*
Y-67970D01*
Y-68256D01*
X1062672D01*
Y-68542D01*
Y-68829D01*
Y-69115D01*
Y-69401D01*
Y-69688D01*
Y-69974D01*
X1062385D01*
Y-70260D01*
Y-70547D01*
Y-70833D01*
Y-71119D01*
Y-71406D01*
Y-71692D01*
Y-71978D01*
X1062099D01*
Y-72264D01*
Y-72551D01*
Y-72837D01*
Y-73123D01*
Y-73410D01*
Y-73696D01*
X1061813D01*
Y-73982D01*
Y-74269D01*
Y-74555D01*
Y-74841D01*
Y-75128D01*
Y-75414D01*
X1061526D01*
Y-75700D01*
Y-75987D01*
Y-76273D01*
Y-76559D01*
Y-76846D01*
Y-77132D01*
Y-77418D01*
X1061240D01*
Y-77704D01*
Y-77991D01*
Y-78277D01*
Y-78563D01*
Y-78850D01*
Y-79136D01*
X1060954D01*
Y-79422D01*
Y-79709D01*
Y-79995D01*
Y-80281D01*
Y-80568D01*
Y-80854D01*
X1060668D01*
Y-81140D01*
Y-81427D01*
Y-81713D01*
Y-81999D01*
Y-82285D01*
Y-82572D01*
X1060381D01*
Y-82858D01*
Y-83144D01*
Y-83431D01*
Y-83717D01*
Y-84003D01*
Y-84290D01*
Y-84576D01*
X1060095D01*
Y-84862D01*
Y-85149D01*
Y-85435D01*
Y-85721D01*
Y-86007D01*
Y-86294D01*
X1059809D01*
Y-86580D01*
Y-86866D01*
X1060381D01*
Y-86580D01*
X1060668D01*
Y-86294D01*
X1060954D01*
Y-86007D01*
X1061526D01*
Y-85721D01*
X1061813D01*
Y-85435D01*
X1062099D01*
Y-85149D01*
X1062672D01*
Y-84862D01*
X1063244D01*
Y-84576D01*
X1063531D01*
Y-84290D01*
X1064103D01*
Y-84003D01*
X1064962D01*
Y-83717D01*
X1065535D01*
Y-83431D01*
X1066394D01*
Y-83144D01*
X1067825D01*
Y-82858D01*
X1074124D01*
Y-83144D01*
X1075270D01*
Y-83431D01*
X1076128D01*
Y-83717D01*
X1076701D01*
Y-84003D01*
X1076987D01*
Y-84290D01*
X1077560D01*
Y-84576D01*
X1077846D01*
Y-84862D01*
X1078133D01*
Y-85149D01*
X1078419D01*
Y-85435D01*
X1078705D01*
Y-85721D01*
Y-86007D01*
X1078992D01*
Y-86294D01*
Y-86580D01*
X1079278D01*
Y-86866D01*
Y-87153D01*
Y-87439D01*
X1079564D01*
Y-87725D01*
Y-88012D01*
Y-88298D01*
Y-88584D01*
X1079850D01*
Y-88871D01*
Y-89157D01*
Y-89443D01*
Y-89730D01*
Y-90016D01*
Y-90302D01*
Y-90588D01*
Y-90875D01*
Y-91161D01*
Y-91448D01*
Y-91734D01*
Y-92020D01*
Y-92306D01*
Y-92593D01*
Y-92879D01*
Y-93165D01*
Y-93452D01*
Y-93738D01*
X1079564D01*
Y-94024D01*
Y-94311D01*
Y-94597D01*
Y-94883D01*
Y-95170D01*
Y-95456D01*
Y-95742D01*
X1079278D01*
Y-96029D01*
Y-96315D01*
Y-96601D01*
Y-96887D01*
Y-97174D01*
Y-97460D01*
Y-97746D01*
X1078992D01*
Y-98033D01*
Y-98319D01*
Y-98605D01*
Y-98892D01*
Y-99178D01*
Y-99464D01*
X1078705D01*
Y-99751D01*
Y-100037D01*
Y-100323D01*
Y-100610D01*
Y-100896D01*
Y-101182D01*
X1078419D01*
Y-101468D01*
Y-101755D01*
Y-102041D01*
Y-102327D01*
Y-102614D01*
Y-102900D01*
X1078133D01*
Y-103186D01*
Y-103473D01*
Y-103759D01*
Y-104045D01*
Y-104332D01*
Y-104618D01*
Y-104904D01*
X1077846D01*
Y-105191D01*
Y-105477D01*
Y-105763D01*
Y-106049D01*
Y-106336D01*
Y-106622D01*
X1077560D01*
Y-106908D01*
Y-107195D01*
Y-107481D01*
Y-107767D01*
Y-108054D01*
Y-108340D01*
X1077274D01*
Y-108626D01*
Y-108913D01*
Y-109199D01*
Y-109485D01*
Y-109772D01*
Y-110058D01*
Y-110344D01*
X1076987D01*
Y-110630D01*
Y-110917D01*
Y-111203D01*
Y-111489D01*
Y-111776D01*
Y-112062D01*
X1076701D01*
Y-112348D01*
Y-112635D01*
Y-112921D01*
Y-113207D01*
Y-113494D01*
Y-113780D01*
X1076415D01*
Y-114066D01*
Y-114353D01*
Y-114639D01*
Y-114925D01*
Y-115211D01*
Y-115498D01*
X1076128D01*
Y-115784D01*
Y-116070D01*
Y-116357D01*
Y-116643D01*
Y-116929D01*
Y-117216D01*
Y-117502D01*
X1075842D01*
Y-117788D01*
Y-118075D01*
Y-118361D01*
Y-118647D01*
Y-118933D01*
Y-119220D01*
X1075556D01*
Y-119506D01*
Y-119792D01*
X1062385D01*
Y-119506D01*
Y-119220D01*
X1062672D01*
Y-118933D01*
Y-118647D01*
Y-118361D01*
Y-118075D01*
Y-117788D01*
Y-117502D01*
X1062958D01*
Y-117216D01*
Y-116929D01*
Y-116643D01*
Y-116357D01*
Y-116070D01*
Y-115784D01*
Y-115498D01*
X1063244D01*
Y-115211D01*
Y-114925D01*
Y-114639D01*
Y-114353D01*
Y-114066D01*
Y-113780D01*
X1063531D01*
Y-113494D01*
Y-113207D01*
Y-112921D01*
Y-112635D01*
Y-112348D01*
Y-112062D01*
X1063817D01*
Y-111776D01*
Y-111489D01*
Y-111203D01*
Y-110917D01*
Y-110630D01*
Y-110344D01*
Y-110058D01*
X1064103D01*
Y-109772D01*
Y-109485D01*
Y-109199D01*
Y-108913D01*
Y-108626D01*
Y-108340D01*
X1064390D01*
Y-108054D01*
Y-107767D01*
Y-107481D01*
Y-107195D01*
Y-106908D01*
Y-106622D01*
Y-106336D01*
X1064676D01*
Y-106049D01*
Y-105763D01*
Y-105477D01*
Y-105191D01*
Y-104904D01*
Y-104618D01*
X1064962D01*
Y-104332D01*
Y-104045D01*
Y-103759D01*
Y-103473D01*
Y-103186D01*
Y-102900D01*
X1065249D01*
Y-102614D01*
Y-102327D01*
Y-102041D01*
Y-101755D01*
Y-101468D01*
Y-101182D01*
X1065535D01*
Y-100896D01*
Y-100610D01*
Y-100323D01*
Y-100037D01*
Y-99751D01*
Y-99464D01*
Y-99178D01*
X1065821D01*
Y-98892D01*
Y-98605D01*
Y-98319D01*
Y-98033D01*
Y-97746D01*
Y-97460D01*
X1066107D01*
Y-97174D01*
Y-96887D01*
Y-96601D01*
Y-96315D01*
Y-96029D01*
Y-95742D01*
Y-95456D01*
X1066394D01*
Y-95170D01*
Y-94883D01*
Y-94597D01*
Y-94311D01*
Y-94024D01*
Y-93738D01*
X1066107D01*
Y-93452D01*
Y-93165D01*
X1065821D01*
Y-92879D01*
X1065535D01*
Y-92593D01*
X1064962D01*
Y-92306D01*
X1063244D01*
Y-92593D01*
X1061813D01*
Y-92879D01*
X1060954D01*
Y-93165D01*
X1060381D01*
Y-93452D01*
X1060095D01*
Y-93738D01*
X1059522D01*
Y-94024D01*
X1059236D01*
Y-94311D01*
X1058950D01*
Y-94597D01*
Y-94883D01*
X1058663D01*
Y-95170D01*
Y-95456D01*
Y-95742D01*
X1058377D01*
Y-96029D01*
Y-96315D01*
Y-96601D01*
Y-96887D01*
Y-97174D01*
Y-97460D01*
X1058091D01*
Y-97746D01*
Y-98033D01*
Y-98319D01*
Y-98605D01*
Y-98892D01*
Y-99178D01*
Y-99464D01*
X1057804D01*
Y-99751D01*
Y-100037D01*
Y-100323D01*
Y-100610D01*
Y-100896D01*
Y-101182D01*
X1057518D01*
Y-101468D01*
Y-101755D01*
Y-102041D01*
Y-102327D01*
Y-102614D01*
Y-102900D01*
X1057232D01*
Y-103186D01*
Y-103473D01*
Y-103759D01*
Y-104045D01*
Y-104332D01*
Y-104618D01*
X1056946D01*
Y-104904D01*
Y-105191D01*
Y-105477D01*
Y-105763D01*
Y-106049D01*
Y-106336D01*
Y-106622D01*
X1056659D01*
Y-106908D01*
Y-107195D01*
Y-107481D01*
Y-107767D01*
Y-108054D01*
Y-108340D01*
X1056373D01*
Y-108626D01*
Y-108913D01*
Y-109199D01*
Y-109485D01*
Y-109772D01*
Y-110058D01*
X1056087D01*
Y-110344D01*
Y-110630D01*
Y-110917D01*
Y-111203D01*
Y-111489D01*
Y-111776D01*
Y-112062D01*
X1055800D01*
Y-112348D01*
Y-112635D01*
Y-112921D01*
Y-113207D01*
Y-113494D01*
Y-113780D01*
X1055514D01*
Y-114066D01*
Y-114353D01*
Y-114639D01*
Y-114925D01*
Y-115211D01*
Y-115498D01*
X1055228D01*
Y-115784D01*
Y-116070D01*
Y-116357D01*
Y-116643D01*
Y-116929D01*
Y-117216D01*
X1054941D01*
Y-117502D01*
Y-117788D01*
Y-118075D01*
Y-118361D01*
Y-118647D01*
Y-118933D01*
Y-119220D01*
X1054655D01*
Y-119506D01*
Y-119792D01*
X1041485D01*
Y-119506D01*
Y-119220D01*
X1041771D01*
Y-118933D01*
Y-118647D01*
Y-118361D01*
Y-118075D01*
Y-117788D01*
Y-117502D01*
Y-117216D01*
X1042057D01*
Y-116929D01*
Y-116643D01*
Y-116357D01*
Y-116070D01*
Y-115784D01*
Y-115498D01*
X1042344D01*
Y-115211D01*
Y-114925D01*
Y-114639D01*
Y-114353D01*
Y-114066D01*
Y-113780D01*
X1042630D01*
Y-113494D01*
Y-113207D01*
Y-112921D01*
Y-112635D01*
Y-112348D01*
Y-112062D01*
Y-111776D01*
X1042916D01*
Y-111489D01*
Y-111203D01*
Y-110917D01*
Y-110630D01*
Y-110344D01*
Y-110058D01*
X1043202D01*
Y-109772D01*
Y-109485D01*
Y-109199D01*
Y-108913D01*
Y-108626D01*
Y-108340D01*
X1043489D01*
Y-108054D01*
Y-107767D01*
Y-107481D01*
Y-107195D01*
Y-106908D01*
Y-106622D01*
X1043775D01*
Y-106336D01*
Y-106049D01*
Y-105763D01*
Y-105477D01*
Y-105191D01*
Y-104904D01*
Y-104618D01*
X1044061D01*
Y-104332D01*
Y-104045D01*
Y-103759D01*
Y-103473D01*
Y-103186D01*
Y-102900D01*
X1044348D01*
Y-102614D01*
Y-102327D01*
Y-102041D01*
Y-101755D01*
Y-101468D01*
Y-101182D01*
X1044634D01*
Y-100896D01*
Y-100610D01*
Y-100323D01*
Y-100037D01*
Y-99751D01*
Y-99464D01*
Y-99178D01*
X1044920D01*
Y-98892D01*
Y-98605D01*
Y-98319D01*
Y-98033D01*
Y-97746D01*
Y-97460D01*
X1045207D01*
Y-97174D01*
Y-96887D01*
Y-96601D01*
Y-96315D01*
Y-96029D01*
Y-95742D01*
X1045493D01*
Y-95456D01*
Y-95170D01*
Y-94883D01*
Y-94597D01*
Y-94311D01*
Y-94024D01*
X1045779D01*
Y-93738D01*
Y-93452D01*
Y-93165D01*
Y-92879D01*
Y-92593D01*
Y-92306D01*
Y-92020D01*
X1046066D01*
Y-91734D01*
Y-91448D01*
Y-91161D01*
Y-90875D01*
Y-90588D01*
Y-90302D01*
X1046352D01*
Y-90016D01*
Y-89730D01*
Y-89443D01*
Y-89157D01*
Y-88871D01*
Y-88584D01*
X1046638D01*
Y-88298D01*
Y-88012D01*
Y-87725D01*
Y-87439D01*
Y-87153D01*
Y-86866D01*
X1046925D01*
Y-86580D01*
Y-86294D01*
Y-86007D01*
Y-85721D01*
Y-85435D01*
Y-85149D01*
Y-84862D01*
X1047211D01*
Y-84576D01*
Y-84290D01*
Y-84003D01*
Y-83717D01*
Y-83431D01*
Y-83144D01*
X1047497D01*
Y-82858D01*
Y-82572D01*
Y-82285D01*
Y-81999D01*
Y-81713D01*
Y-81427D01*
X1047783D01*
Y-81140D01*
Y-80854D01*
Y-80568D01*
Y-80281D01*
Y-79995D01*
Y-79709D01*
Y-79422D01*
X1048070D01*
Y-79136D01*
Y-78850D01*
Y-78563D01*
Y-78277D01*
Y-77991D01*
Y-77704D01*
X1048356D01*
Y-77418D01*
Y-77132D01*
Y-76846D01*
Y-76559D01*
Y-76273D01*
Y-75987D01*
X1048642D01*
Y-75700D01*
Y-75414D01*
Y-75128D01*
Y-74841D01*
Y-74555D01*
Y-74269D01*
X1048929D01*
Y-73982D01*
Y-73696D01*
Y-73410D01*
Y-73123D01*
Y-72837D01*
Y-72551D01*
Y-72264D01*
X1049215D01*
Y-71978D01*
Y-71692D01*
Y-71406D01*
Y-71119D01*
Y-70833D01*
Y-70547D01*
X1049501D01*
Y-70260D01*
Y-69974D01*
Y-69688D01*
Y-69401D01*
Y-69115D01*
Y-68829D01*
X1049788D01*
Y-68542D01*
Y-68256D01*
Y-67970D01*
Y-67684D01*
Y-67397D01*
Y-67111D01*
Y-66825D01*
X1050074D01*
Y-66538D01*
Y-66252D01*
Y-65966D01*
X1063244D01*
Y-66252D01*
D02*
G37*
G36*
X1032036Y-69688D02*
X1033754D01*
Y-69974D01*
X1034613D01*
Y-70260D01*
X1035472D01*
Y-70547D01*
X1036331D01*
Y-70833D01*
X1036904D01*
Y-71119D01*
X1037190D01*
Y-71406D01*
X1037763D01*
Y-71692D01*
X1038049D01*
Y-71978D01*
X1038622D01*
Y-72264D01*
X1038908D01*
Y-72551D01*
X1039194D01*
Y-72837D01*
X1039480D01*
Y-73123D01*
X1039767D01*
Y-73410D01*
X1040053D01*
Y-73696D01*
X1040339D01*
Y-73982D01*
Y-74269D01*
X1040626D01*
Y-74555D01*
X1040912D01*
Y-74841D01*
Y-75128D01*
X1041198D01*
Y-75414D01*
X1041485D01*
Y-75700D01*
Y-75987D01*
X1041771D01*
Y-76273D01*
Y-76559D01*
Y-76846D01*
X1042057D01*
Y-77132D01*
Y-77418D01*
Y-77704D01*
X1042344D01*
Y-77991D01*
Y-78277D01*
Y-78563D01*
Y-78850D01*
X1042630D01*
Y-79136D01*
Y-79422D01*
Y-79709D01*
Y-79995D01*
Y-80281D01*
X1042916D01*
Y-80568D01*
Y-80854D01*
Y-81140D01*
Y-81427D01*
Y-81713D01*
Y-81999D01*
Y-82285D01*
Y-82572D01*
Y-82858D01*
Y-83144D01*
Y-83431D01*
Y-83717D01*
Y-84003D01*
Y-84290D01*
Y-84576D01*
Y-84862D01*
Y-85149D01*
Y-85435D01*
Y-85721D01*
Y-86007D01*
X1042630D01*
Y-86294D01*
Y-86580D01*
Y-86866D01*
Y-87153D01*
Y-87439D01*
Y-87725D01*
Y-88012D01*
X1042344D01*
Y-88298D01*
Y-88584D01*
Y-88871D01*
Y-89157D01*
Y-89443D01*
X1042057D01*
Y-89730D01*
Y-90016D01*
Y-90302D01*
Y-90588D01*
Y-90875D01*
X1041771D01*
Y-91161D01*
Y-91448D01*
Y-91734D01*
X1041485D01*
Y-92020D01*
Y-92306D01*
Y-92593D01*
Y-92879D01*
X1041198D01*
Y-93165D01*
Y-93452D01*
Y-93738D01*
X1040912D01*
Y-94024D01*
Y-94311D01*
X1040626D01*
Y-94597D01*
Y-94883D01*
Y-95170D01*
X1040339D01*
Y-95456D01*
Y-95742D01*
X1040053D01*
Y-96029D01*
Y-96315D01*
X1039767D01*
Y-96601D01*
Y-96887D01*
X1039480D01*
Y-97174D01*
X1039194D01*
Y-97460D01*
Y-97746D01*
X1038908D01*
Y-98033D01*
X1038622D01*
Y-98319D01*
X1038335D01*
Y-98605D01*
Y-98892D01*
X1038049D01*
Y-99178D01*
X1037763D01*
Y-99464D01*
X1037476D01*
Y-99751D01*
X1037190D01*
Y-100037D01*
X1036904D01*
Y-100323D01*
X1036331D01*
Y-100610D01*
X1036045D01*
Y-100896D01*
X1035472D01*
Y-101182D01*
X1035186D01*
Y-101468D01*
X1034613D01*
Y-101755D01*
X1033754D01*
Y-102041D01*
X1032895D01*
Y-102327D01*
X1032036D01*
Y-102614D01*
X1030318D01*
Y-102900D01*
X1025165D01*
Y-102614D01*
X1022588D01*
Y-102327D01*
X1020584D01*
Y-102041D01*
X1019152D01*
Y-101755D01*
X1017721D01*
Y-101468D01*
X1016289D01*
Y-101755D01*
Y-102041D01*
Y-102327D01*
Y-102614D01*
Y-102900D01*
Y-103186D01*
Y-103473D01*
X1016003D01*
Y-103759D01*
Y-104045D01*
Y-104332D01*
Y-104618D01*
Y-104904D01*
Y-105191D01*
X1015716D01*
Y-105477D01*
Y-105763D01*
Y-106049D01*
Y-106336D01*
Y-106622D01*
Y-106908D01*
X1015430D01*
Y-107195D01*
Y-107481D01*
Y-107767D01*
Y-108054D01*
Y-108340D01*
Y-108626D01*
Y-108913D01*
X1015144D01*
Y-109199D01*
Y-109485D01*
Y-109772D01*
Y-110058D01*
Y-110344D01*
Y-110630D01*
X1014857D01*
Y-110917D01*
Y-111203D01*
Y-111489D01*
Y-111776D01*
Y-112062D01*
Y-112348D01*
X1014571D01*
Y-112635D01*
Y-112921D01*
Y-113207D01*
Y-113494D01*
Y-113780D01*
Y-114066D01*
Y-114353D01*
X1014285D01*
Y-114639D01*
Y-114925D01*
Y-115211D01*
Y-115498D01*
Y-115784D01*
Y-116070D01*
X1013999D01*
Y-116357D01*
Y-116643D01*
Y-116929D01*
Y-117216D01*
Y-117502D01*
Y-117788D01*
X1013712D01*
Y-118075D01*
Y-118361D01*
Y-118647D01*
Y-118933D01*
Y-119220D01*
Y-119506D01*
Y-119792D01*
X1000256D01*
Y-119506D01*
X1000542D01*
Y-119220D01*
Y-118933D01*
Y-118647D01*
Y-118361D01*
Y-118075D01*
X1000828D01*
Y-117788D01*
Y-117502D01*
Y-117216D01*
Y-116929D01*
Y-116643D01*
Y-116357D01*
Y-116070D01*
X1001114D01*
Y-115784D01*
Y-115498D01*
Y-115211D01*
Y-114925D01*
Y-114639D01*
Y-114353D01*
X1001401D01*
Y-114066D01*
Y-113780D01*
Y-113494D01*
Y-113207D01*
Y-112921D01*
Y-112635D01*
X1001687D01*
Y-112348D01*
Y-112062D01*
Y-111776D01*
Y-111489D01*
Y-111203D01*
Y-110917D01*
Y-110630D01*
X1001974D01*
Y-110344D01*
Y-110058D01*
Y-109772D01*
Y-109485D01*
Y-109199D01*
Y-108913D01*
X1002260D01*
Y-108626D01*
Y-108340D01*
Y-108054D01*
Y-107767D01*
Y-107481D01*
Y-107195D01*
X1002546D01*
Y-106908D01*
Y-106622D01*
Y-106336D01*
Y-106049D01*
Y-105763D01*
Y-105477D01*
X1002832D01*
Y-105191D01*
Y-104904D01*
Y-104618D01*
Y-104332D01*
Y-104045D01*
Y-103759D01*
Y-103473D01*
X1003119D01*
Y-103186D01*
Y-102900D01*
Y-102614D01*
Y-102327D01*
Y-102041D01*
Y-101755D01*
X1003405D01*
Y-101468D01*
Y-101182D01*
Y-100896D01*
Y-100610D01*
Y-100323D01*
Y-100037D01*
X1003691D01*
Y-99751D01*
Y-99464D01*
Y-99178D01*
Y-98892D01*
Y-98605D01*
Y-98319D01*
X1003978D01*
Y-98033D01*
Y-97746D01*
Y-97460D01*
Y-97174D01*
Y-96887D01*
Y-96601D01*
Y-96315D01*
X1004264D01*
Y-96029D01*
Y-95742D01*
Y-95456D01*
Y-95170D01*
Y-94883D01*
Y-94597D01*
X1004550D01*
Y-94311D01*
Y-94024D01*
Y-93738D01*
Y-93452D01*
Y-93165D01*
Y-92879D01*
X1004837D01*
Y-92593D01*
Y-92306D01*
Y-92020D01*
Y-91734D01*
Y-91448D01*
Y-91161D01*
Y-90875D01*
X1005123D01*
Y-90588D01*
Y-90302D01*
Y-90016D01*
Y-89730D01*
Y-89443D01*
Y-89157D01*
X1005409D01*
Y-88871D01*
Y-88584D01*
Y-88298D01*
Y-88012D01*
Y-87725D01*
Y-87439D01*
X1005696D01*
Y-87153D01*
Y-86866D01*
Y-86580D01*
Y-86294D01*
Y-86007D01*
Y-85721D01*
X1005982D01*
Y-85435D01*
Y-85149D01*
Y-84862D01*
Y-84576D01*
Y-84290D01*
Y-84003D01*
Y-83717D01*
X1006268D01*
Y-83431D01*
Y-83144D01*
Y-82858D01*
Y-82572D01*
Y-82285D01*
Y-81999D01*
X1006555D01*
Y-81713D01*
Y-81427D01*
Y-81140D01*
Y-80854D01*
Y-80568D01*
Y-80281D01*
X1006841D01*
Y-79995D01*
Y-79709D01*
Y-79422D01*
Y-79136D01*
Y-78850D01*
Y-78563D01*
Y-78277D01*
X1007127D01*
Y-77991D01*
Y-77704D01*
Y-77418D01*
Y-77132D01*
Y-76846D01*
Y-76559D01*
X1007413D01*
Y-76273D01*
Y-75987D01*
Y-75700D01*
Y-75414D01*
Y-75128D01*
Y-74841D01*
X1007700D01*
Y-74555D01*
Y-74269D01*
Y-73982D01*
Y-73696D01*
Y-73410D01*
Y-73123D01*
Y-72837D01*
X1007986D01*
Y-72551D01*
Y-72264D01*
Y-71978D01*
Y-71692D01*
Y-71406D01*
Y-71119D01*
X1008272D01*
Y-70833D01*
Y-70547D01*
Y-70260D01*
Y-69974D01*
Y-69688D01*
Y-69401D01*
X1032036D01*
Y-69688D01*
D02*
G37*
G36*
X1165172Y-83717D02*
X1164886D01*
Y-84003D01*
X1164599D01*
Y-84290D01*
Y-84576D01*
X1164313D01*
Y-84862D01*
X1164027D01*
Y-85149D01*
X1163740D01*
Y-85435D01*
Y-85721D01*
X1163454D01*
Y-86007D01*
X1163168D01*
Y-86294D01*
X1162881D01*
Y-86580D01*
X1162595D01*
Y-86866D01*
Y-87153D01*
X1162309D01*
Y-87439D01*
X1162022D01*
Y-87725D01*
X1161736D01*
Y-88012D01*
Y-88298D01*
X1161450D01*
Y-88584D01*
X1161163D01*
Y-88871D01*
X1160877D01*
Y-89157D01*
X1160591D01*
Y-89443D01*
Y-89730D01*
X1160305D01*
Y-90016D01*
X1160018D01*
Y-90302D01*
X1159732D01*
Y-90588D01*
Y-90875D01*
X1159445D01*
Y-91161D01*
X1159159D01*
Y-91448D01*
X1158873D01*
Y-91734D01*
Y-92020D01*
X1158587D01*
Y-92306D01*
X1158300D01*
Y-92593D01*
X1158014D01*
Y-92879D01*
X1157728D01*
Y-93165D01*
Y-93452D01*
X1157441D01*
Y-93738D01*
X1157155D01*
Y-94024D01*
X1156869D01*
Y-94311D01*
Y-94597D01*
X1156582D01*
Y-94883D01*
X1156296D01*
Y-95170D01*
X1156010D01*
Y-95456D01*
Y-95742D01*
X1155723D01*
Y-96029D01*
X1155437D01*
Y-96315D01*
X1155151D01*
Y-96601D01*
X1154865D01*
Y-96887D01*
Y-97174D01*
X1154578D01*
Y-97460D01*
X1154292D01*
Y-97746D01*
X1154006D01*
Y-98033D01*
Y-98319D01*
X1153719D01*
Y-98605D01*
X1153433D01*
Y-98892D01*
X1153147D01*
Y-99178D01*
Y-99464D01*
X1152860D01*
Y-99751D01*
X1152574D01*
Y-100037D01*
X1152288D01*
Y-100323D01*
X1152001D01*
Y-100610D01*
Y-100896D01*
X1151715D01*
Y-101182D01*
X1151429D01*
Y-101468D01*
X1151142D01*
Y-101755D01*
Y-102041D01*
X1150856D01*
Y-102327D01*
X1150570D01*
Y-102614D01*
X1150284D01*
Y-102900D01*
X1149997D01*
Y-103186D01*
Y-103473D01*
X1150284D01*
Y-103759D01*
Y-104045D01*
X1150570D01*
Y-104332D01*
Y-104618D01*
X1150856D01*
Y-104904D01*
X1151142D01*
Y-105191D01*
Y-105477D01*
X1151429D01*
Y-105763D01*
Y-106049D01*
X1151715D01*
Y-106336D01*
Y-106622D01*
X1152001D01*
Y-106908D01*
Y-107195D01*
X1152288D01*
Y-107481D01*
Y-107767D01*
X1152574D01*
Y-108054D01*
Y-108340D01*
X1152860D01*
Y-108626D01*
Y-108913D01*
X1153147D01*
Y-109199D01*
Y-109485D01*
X1153433D01*
Y-109772D01*
X1153719D01*
Y-110058D01*
Y-110344D01*
X1154006D01*
Y-110630D01*
Y-110917D01*
X1154292D01*
Y-111203D01*
Y-111489D01*
X1154578D01*
Y-111776D01*
Y-112062D01*
X1154865D01*
Y-112348D01*
Y-112635D01*
X1155151D01*
Y-112921D01*
Y-113207D01*
X1155437D01*
Y-113494D01*
Y-113780D01*
X1155723D01*
Y-114066D01*
X1156010D01*
Y-114353D01*
Y-114639D01*
X1156296D01*
Y-114925D01*
Y-115211D01*
X1156582D01*
Y-115498D01*
Y-115784D01*
X1156869D01*
Y-116070D01*
Y-116357D01*
X1157155D01*
Y-116643D01*
Y-116929D01*
X1157441D01*
Y-117216D01*
Y-117502D01*
X1157728D01*
Y-117788D01*
Y-118075D01*
X1158014D01*
Y-118361D01*
X1158300D01*
Y-118647D01*
Y-118933D01*
X1158587D01*
Y-119220D01*
Y-119506D01*
X1158873D01*
Y-119792D01*
X1143698D01*
Y-119506D01*
X1143412D01*
Y-119220D01*
Y-118933D01*
Y-118647D01*
X1143126D01*
Y-118361D01*
Y-118075D01*
Y-117788D01*
X1142839D01*
Y-117502D01*
Y-117216D01*
X1142553D01*
Y-116929D01*
Y-116643D01*
Y-116357D01*
X1142267D01*
Y-116070D01*
Y-115784D01*
Y-115498D01*
X1141980D01*
Y-115211D01*
Y-114925D01*
X1141694D01*
Y-114639D01*
Y-114353D01*
Y-114066D01*
X1141408D01*
Y-113780D01*
Y-113494D01*
Y-113207D01*
X1141121D01*
Y-112921D01*
Y-112635D01*
Y-112348D01*
X1140835D01*
Y-112062D01*
X1140263D01*
Y-112348D01*
Y-112635D01*
X1139976D01*
Y-112921D01*
X1139690D01*
Y-113207D01*
Y-113494D01*
X1139404D01*
Y-113780D01*
X1139117D01*
Y-114066D01*
Y-114353D01*
X1138831D01*
Y-114639D01*
X1138545D01*
Y-114925D01*
Y-115211D01*
X1138258D01*
Y-115498D01*
X1137972D01*
Y-115784D01*
X1137686D01*
Y-116070D01*
Y-116357D01*
X1137399D01*
Y-116643D01*
X1137113D01*
Y-116929D01*
Y-117216D01*
X1136827D01*
Y-117502D01*
X1136541D01*
Y-117788D01*
Y-118075D01*
X1136254D01*
Y-118361D01*
X1135968D01*
Y-118647D01*
Y-118933D01*
X1135682D01*
Y-119220D01*
X1135395D01*
Y-119506D01*
Y-119792D01*
X1119362D01*
Y-119506D01*
X1119648D01*
Y-119220D01*
X1119934D01*
Y-118933D01*
X1120221D01*
Y-118647D01*
X1120507D01*
Y-118361D01*
Y-118075D01*
X1120793D01*
Y-117788D01*
X1121080D01*
Y-117502D01*
X1121366D01*
Y-117216D01*
X1121652D01*
Y-116929D01*
Y-116643D01*
X1121939D01*
Y-116357D01*
X1122225D01*
Y-116070D01*
X1122511D01*
Y-115784D01*
Y-115498D01*
X1122797D01*
Y-115211D01*
X1123084D01*
Y-114925D01*
X1123370D01*
Y-114639D01*
X1123656D01*
Y-114353D01*
Y-114066D01*
X1123943D01*
Y-113780D01*
X1124229D01*
Y-113494D01*
X1124515D01*
Y-113207D01*
X1124802D01*
Y-112921D01*
Y-112635D01*
X1125088D01*
Y-112348D01*
X1125374D01*
Y-112062D01*
X1125661D01*
Y-111776D01*
Y-111489D01*
X1125947D01*
Y-111203D01*
X1126233D01*
Y-110917D01*
X1126519D01*
Y-110630D01*
X1126806D01*
Y-110344D01*
Y-110058D01*
X1127092D01*
Y-109772D01*
X1127378D01*
Y-109485D01*
X1127665D01*
Y-109199D01*
Y-108913D01*
X1127951D01*
Y-108626D01*
X1128237D01*
Y-108340D01*
X1128524D01*
Y-108054D01*
X1128810D01*
Y-107767D01*
Y-107481D01*
X1129096D01*
Y-107195D01*
X1129383D01*
Y-106908D01*
X1129669D01*
Y-106622D01*
Y-106336D01*
X1129955D01*
Y-106049D01*
X1130242D01*
Y-105763D01*
X1130528D01*
Y-105477D01*
X1130814D01*
Y-105191D01*
Y-104904D01*
X1131100D01*
Y-104618D01*
X1131387D01*
Y-104332D01*
X1131673D01*
Y-104045D01*
X1131960D01*
Y-103759D01*
Y-103473D01*
X1132246D01*
Y-103186D01*
X1132532D01*
Y-102900D01*
X1132818D01*
Y-102614D01*
Y-102327D01*
X1133105D01*
Y-102041D01*
X1133391D01*
Y-101755D01*
X1133677D01*
Y-101468D01*
X1133964D01*
Y-101182D01*
Y-100896D01*
X1134250D01*
Y-100610D01*
Y-100323D01*
Y-100037D01*
X1133964D01*
Y-99751D01*
X1133677D01*
Y-99464D01*
Y-99178D01*
X1133391D01*
Y-98892D01*
Y-98605D01*
X1133105D01*
Y-98319D01*
Y-98033D01*
X1132818D01*
Y-97746D01*
Y-97460D01*
X1132532D01*
Y-97174D01*
Y-96887D01*
X1132246D01*
Y-96601D01*
Y-96315D01*
X1131960D01*
Y-96029D01*
X1131673D01*
Y-95742D01*
Y-95456D01*
X1131387D01*
Y-95170D01*
Y-94883D01*
X1131100D01*
Y-94597D01*
Y-94311D01*
X1130814D01*
Y-94024D01*
Y-93738D01*
X1130528D01*
Y-93452D01*
Y-93165D01*
X1130242D01*
Y-92879D01*
Y-92593D01*
X1129955D01*
Y-92306D01*
X1129669D01*
Y-92020D01*
Y-91734D01*
X1129383D01*
Y-91448D01*
Y-91161D01*
X1129096D01*
Y-90875D01*
Y-90588D01*
X1128810D01*
Y-90302D01*
Y-90016D01*
X1128524D01*
Y-89730D01*
Y-89443D01*
X1128237D01*
Y-89157D01*
Y-88871D01*
X1127951D01*
Y-88584D01*
Y-88298D01*
X1127665D01*
Y-88012D01*
X1127378D01*
Y-87725D01*
Y-87439D01*
X1127092D01*
Y-87153D01*
Y-86866D01*
X1126806D01*
Y-86580D01*
Y-86294D01*
X1126519D01*
Y-86007D01*
Y-85721D01*
X1126233D01*
Y-85435D01*
Y-85149D01*
X1125947D01*
Y-84862D01*
Y-84576D01*
X1125661D01*
Y-84290D01*
X1125374D01*
Y-84003D01*
Y-83717D01*
X1125088D01*
Y-83431D01*
X1140835D01*
Y-83717D01*
X1141121D01*
Y-84003D01*
Y-84290D01*
Y-84576D01*
X1141408D01*
Y-84862D01*
Y-85149D01*
Y-85435D01*
X1141694D01*
Y-85721D01*
Y-86007D01*
Y-86294D01*
X1141980D01*
Y-86580D01*
Y-86866D01*
Y-87153D01*
X1142267D01*
Y-87439D01*
Y-87725D01*
Y-88012D01*
X1142553D01*
Y-88298D01*
Y-88584D01*
Y-88871D01*
X1142839D01*
Y-89157D01*
Y-89443D01*
Y-89730D01*
X1143126D01*
Y-90016D01*
Y-90302D01*
Y-90588D01*
X1143412D01*
Y-90875D01*
Y-91161D01*
Y-91448D01*
Y-91734D01*
X1143985D01*
Y-91448D01*
X1144271D01*
Y-91161D01*
X1144557D01*
Y-90875D01*
Y-90588D01*
X1144844D01*
Y-90302D01*
X1145130D01*
Y-90016D01*
Y-89730D01*
X1145416D01*
Y-89443D01*
X1145702D01*
Y-89157D01*
Y-88871D01*
X1145989D01*
Y-88584D01*
X1146275D01*
Y-88298D01*
Y-88012D01*
X1146561D01*
Y-87725D01*
X1146848D01*
Y-87439D01*
Y-87153D01*
X1147134D01*
Y-86866D01*
X1147420D01*
Y-86580D01*
Y-86294D01*
X1147707D01*
Y-86007D01*
X1147993D01*
Y-85721D01*
Y-85435D01*
X1148279D01*
Y-85149D01*
X1148566D01*
Y-84862D01*
Y-84576D01*
X1148852D01*
Y-84290D01*
X1149138D01*
Y-84003D01*
Y-83717D01*
X1149425D01*
Y-83431D01*
X1165172D01*
Y-83717D01*
D02*
G37*
%LPC*%
G36*
X1027742Y-80568D02*
X1019725D01*
Y-80854D01*
Y-81140D01*
Y-81427D01*
Y-81713D01*
Y-81999D01*
X1019438D01*
Y-82285D01*
Y-82572D01*
Y-82858D01*
Y-83144D01*
Y-83431D01*
Y-83717D01*
X1019152D01*
Y-84003D01*
Y-84290D01*
Y-84576D01*
Y-84862D01*
Y-85149D01*
Y-85435D01*
X1018866D01*
Y-85721D01*
Y-86007D01*
Y-86294D01*
Y-86580D01*
Y-86866D01*
Y-87153D01*
X1018580D01*
Y-87439D01*
Y-87725D01*
Y-88012D01*
Y-88298D01*
Y-88584D01*
Y-88871D01*
Y-89157D01*
X1018293D01*
Y-89443D01*
Y-89730D01*
Y-90016D01*
Y-90302D01*
Y-90588D01*
Y-90875D01*
X1018007D01*
Y-91161D01*
Y-91448D01*
Y-91734D01*
X1025165D01*
Y-91448D01*
X1026310D01*
Y-91161D01*
X1026883D01*
Y-90875D01*
X1027169D01*
Y-90588D01*
X1027455D01*
Y-90302D01*
X1027742D01*
Y-90016D01*
X1028028D01*
Y-89730D01*
Y-89443D01*
X1028314D01*
Y-89157D01*
Y-88871D01*
X1028601D01*
Y-88584D01*
Y-88298D01*
X1028887D01*
Y-88012D01*
Y-87725D01*
Y-87439D01*
Y-87153D01*
X1029173D01*
Y-86866D01*
Y-86580D01*
Y-86294D01*
Y-86007D01*
Y-85721D01*
X1029459D01*
Y-85435D01*
Y-85149D01*
Y-84862D01*
Y-84576D01*
Y-84290D01*
Y-84003D01*
Y-83717D01*
Y-83431D01*
Y-83144D01*
Y-82858D01*
Y-82572D01*
X1029173D01*
Y-82285D01*
Y-81999D01*
X1028887D01*
Y-81713D01*
Y-81427D01*
X1028601D01*
Y-81140D01*
X1028314D01*
Y-80854D01*
X1027742D01*
Y-80568D01*
D02*
G37*
%LPD*%
G36*
X17160Y126692D02*
X17212Y126682D01*
X17261Y126665D01*
X17308Y126642D01*
X17352Y126613D01*
X17391Y126579D01*
X17418Y126548D01*
X17450Y126520D01*
X17477Y126489D01*
X17508Y126462D01*
X17542Y126423D01*
X17571Y126379D01*
X17595Y126332D01*
X17612Y126282D01*
X17622Y126231D01*
X17625Y126179D01*
Y126120D01*
X17623Y126091D01*
X17624Y126089D01*
X17625Y126062D01*
Y126004D01*
X17624Y125980D01*
X17630Y125971D01*
X17653Y125924D01*
X17670Y125874D01*
X17680Y125823D01*
X17684Y125771D01*
Y125712D01*
Y125687D01*
X17688Y125680D01*
X17711Y125633D01*
X17728Y125583D01*
X17738Y125531D01*
X17742Y125479D01*
Y125421D01*
X17740Y125392D01*
X17742Y125363D01*
Y125337D01*
X17746Y125330D01*
X17770Y125283D01*
X17786Y125233D01*
X17797Y125182D01*
X17800Y125129D01*
Y125104D01*
X17805Y125097D01*
X17828Y125050D01*
X17845Y125000D01*
X17855Y124949D01*
X17858Y124896D01*
Y124838D01*
X17856Y124809D01*
X17858Y124780D01*
Y124722D01*
X17857Y124698D01*
X17863Y124689D01*
X17886Y124642D01*
X17903Y124592D01*
X17913Y124541D01*
X17914Y124524D01*
X17921Y124514D01*
X17944Y124467D01*
X17961Y124417D01*
X17971Y124366D01*
X17975Y124314D01*
Y124255D01*
X17973Y124226D01*
X17974Y124211D01*
X18008Y124195D01*
X18018Y124188D01*
X18034Y124187D01*
X18086Y124176D01*
X18135Y124160D01*
X18182Y124136D01*
X18193Y124129D01*
X18209Y124128D01*
X18261Y124118D01*
X18310Y124101D01*
X18357Y124078D01*
X18401Y124049D01*
X18440Y124014D01*
X18443Y124012D01*
X18486Y124003D01*
X18494Y124002D01*
X18543Y123985D01*
X18590Y123961D01*
X18634Y123932D01*
X18673Y123898D01*
X18676Y123895D01*
X18727Y123885D01*
X18777Y123868D01*
X18823Y123845D01*
X18834Y123838D01*
X18850Y123837D01*
X18902Y123827D01*
X18951Y123810D01*
X18998Y123787D01*
X19009Y123780D01*
X19025Y123779D01*
X19076Y123768D01*
X19126Y123751D01*
X19173Y123728D01*
X19177Y123726D01*
X19180Y123728D01*
X19227Y123751D01*
X19277Y123768D01*
X19328Y123778D01*
X19330Y123781D01*
X19361Y123809D01*
X19389Y123839D01*
X19420Y123867D01*
X19447Y123898D01*
X19486Y123932D01*
X19530Y123961D01*
X19577Y123985D01*
X19600Y123993D01*
X19604Y123994D01*
X19622Y124014D01*
X19661Y124049D01*
X19705Y124078D01*
X19752Y124101D01*
X19779Y124110D01*
X19797Y124131D01*
X19828Y124158D01*
X19855Y124189D01*
X19856Y124190D01*
X19886Y124216D01*
X19913Y124247D01*
X19952Y124282D01*
X19996Y124311D01*
X20043Y124334D01*
X20093Y124351D01*
X20144Y124361D01*
X20146Y124364D01*
X20186Y124399D01*
X20229Y124428D01*
X20276Y124451D01*
X20303Y124460D01*
X20321Y124480D01*
X20360Y124515D01*
X20404Y124544D01*
X20451Y124567D01*
X20478Y124576D01*
X20496Y124597D01*
X20527Y124624D01*
X20554Y124655D01*
X20585Y124683D01*
X20591Y124689D01*
X20613Y124714D01*
X20652Y124748D01*
X20696Y124777D01*
X20742Y124801D01*
X20792Y124817D01*
X20843Y124828D01*
X20846Y124830D01*
X20885Y124865D01*
X20929Y124894D01*
X20976Y124917D01*
X21025Y124934D01*
X21077Y124944D01*
X21129Y124948D01*
X21304D01*
X21356Y124944D01*
X21408Y124934D01*
X21457Y124917D01*
X21504Y124894D01*
X21548Y124865D01*
X21587Y124830D01*
X21614Y124799D01*
X21639Y124777D01*
X21646Y124772D01*
X21673Y124741D01*
X21704Y124714D01*
X21731Y124682D01*
X21762Y124655D01*
X21789Y124624D01*
X21820Y124597D01*
X21848Y124566D01*
X21879Y124539D01*
X21906Y124508D01*
X21937Y124480D01*
X21964Y124450D01*
X21995Y124422D01*
X22023Y124391D01*
X22053Y124364D01*
X22081Y124333D01*
X22112Y124306D01*
X22139Y124275D01*
X22161Y124255D01*
X22170Y124247D01*
X22197Y124216D01*
X22228Y124189D01*
X22256Y124158D01*
X22280Y124136D01*
X22287Y124131D01*
X22314Y124100D01*
X22344Y124073D01*
X22345Y124073D01*
X22372Y124042D01*
X22403Y124014D01*
X22431Y123983D01*
X22461Y123956D01*
X22489Y123925D01*
X22520Y123898D01*
X22547Y123867D01*
X22578Y123839D01*
X22605Y123808D01*
X22635Y123782D01*
X22636Y123781D01*
X22664Y123750D01*
X22695Y123723D01*
X22722Y123692D01*
X22753Y123665D01*
X22780Y123634D01*
X22811Y123606D01*
X22838Y123575D01*
X22869Y123548D01*
X22897Y123517D01*
X22928Y123490D01*
X22955Y123459D01*
X22986Y123432D01*
X23013Y123400D01*
X23044Y123373D01*
X23072Y123342D01*
X23102Y123315D01*
X23130Y123284D01*
X23143Y123273D01*
X23161Y123257D01*
X23195Y123217D01*
X23224Y123174D01*
X23248Y123127D01*
X23265Y123077D01*
X23275Y123026D01*
X23278Y122973D01*
Y122915D01*
Y122857D01*
Y122798D01*
X23275Y122746D01*
X23265Y122695D01*
X23248Y122645D01*
X23224Y122598D01*
X23195Y122554D01*
X23161Y122515D01*
X23130Y122488D01*
X23102Y122457D01*
X23100Y122454D01*
X23090Y122403D01*
X23073Y122354D01*
X23050Y122307D01*
X23021Y122263D01*
X22986Y122224D01*
X22955Y122196D01*
X22930Y122168D01*
X22928Y122165D01*
X22897Y122138D01*
X22869Y122107D01*
X22867Y122105D01*
X22857Y122054D01*
X22840Y122004D01*
X22817Y121957D01*
X22787Y121913D01*
X22753Y121874D01*
X22722Y121847D01*
X22695Y121816D01*
X22664Y121788D01*
X22662Y121786D01*
X22636Y121757D01*
X22605Y121730D01*
X22578Y121699D01*
X22558Y121681D01*
X22548Y121654D01*
X22525Y121607D01*
X22502Y121572D01*
X22490Y121538D01*
X22467Y121491D01*
X22438Y121447D01*
X22403Y121408D01*
X22382Y121389D01*
X22372Y121380D01*
X22345Y121349D01*
X22324Y121331D01*
X22315Y121305D01*
X22292Y121258D01*
X22269Y121223D01*
X22261Y121198D01*
X22257Y121188D01*
X22234Y121141D01*
X22205Y121097D01*
X22170Y121058D01*
X22139Y121031D01*
X22112Y121000D01*
X22091Y120982D01*
X22082Y120955D01*
X22059Y120908D01*
X22057Y120904D01*
X22059Y120901D01*
X22082Y120854D01*
X22094Y120819D01*
X22117Y120784D01*
X22140Y120737D01*
X22157Y120688D01*
X22167Y120636D01*
X22170Y120634D01*
X22205Y120595D01*
X22234Y120551D01*
X22257Y120504D01*
X22274Y120455D01*
X22284Y120403D01*
X22285Y120387D01*
X22292Y120376D01*
X22315Y120329D01*
X22332Y120280D01*
X22342Y120228D01*
X22343Y120212D01*
X22350Y120202D01*
X22374Y120155D01*
X22390Y120105D01*
X22401Y120054D01*
X22403Y120051D01*
X22438Y120012D01*
X22467Y119968D01*
X22490Y119921D01*
X22507Y119872D01*
X22517Y119821D01*
X22520Y119818D01*
X22554Y119779D01*
X22583Y119735D01*
X22607Y119688D01*
X22624Y119639D01*
X22625Y119632D01*
X22632Y119631D01*
X22681Y119614D01*
X22728Y119591D01*
X22735Y119586D01*
X22819D01*
X22848Y119584D01*
X22877Y119586D01*
X22936D01*
X22988Y119583D01*
X23039Y119572D01*
X23089Y119555D01*
X23136Y119532D01*
X23144Y119527D01*
X23145Y119526D01*
X23169Y119528D01*
X23227D01*
X23279Y119524D01*
X23331Y119514D01*
X23381Y119497D01*
X23427Y119474D01*
X23434Y119469D01*
X23518D01*
X23548Y119468D01*
X23577Y119469D01*
X23635D01*
X23687Y119466D01*
X23739Y119456D01*
X23788Y119439D01*
X23835Y119416D01*
X23846Y119409D01*
X23862Y119408D01*
X23914Y119397D01*
X23963Y119381D01*
X24010Y119358D01*
X24017Y119353D01*
X24101D01*
X24130Y119351D01*
X24160Y119353D01*
X24218D01*
X24270Y119350D01*
X24321Y119339D01*
X24371Y119322D01*
X24418Y119299D01*
X24427Y119293D01*
X24451Y119295D01*
X24509D01*
X24562Y119291D01*
X24613Y119281D01*
X24663Y119264D01*
X24710Y119241D01*
X24753Y119212D01*
X24793Y119177D01*
X24820Y119146D01*
X24827Y119140D01*
X24851Y119119D01*
X24878Y119088D01*
X24891Y119077D01*
X24909Y119061D01*
X24944Y119021D01*
X24973Y118978D01*
X24996Y118931D01*
X25013Y118881D01*
X25023Y118830D01*
X25027Y118777D01*
Y118719D01*
X25025Y118690D01*
X25026Y118669D01*
X25027Y118661D01*
Y118602D01*
X25025Y118573D01*
X25027Y118544D01*
Y118486D01*
X25025Y118457D01*
X25025Y118453D01*
X25027Y118428D01*
Y118369D01*
X25025Y118340D01*
X25027Y118311D01*
Y118253D01*
X25025Y118224D01*
X25027Y118194D01*
Y118136D01*
X25025Y118107D01*
X25027Y118078D01*
Y118020D01*
X25026Y118009D01*
X25025Y117991D01*
X25027Y117961D01*
Y117903D01*
X25025Y117874D01*
X25027Y117845D01*
Y117787D01*
X25025Y117757D01*
X25026Y117739D01*
X25027Y117728D01*
Y117670D01*
X25025Y117641D01*
X25027Y117612D01*
Y117553D01*
X25025Y117524D01*
X25027Y117495D01*
Y117437D01*
X25025Y117411D01*
X25025Y117408D01*
X25027Y117378D01*
Y117320D01*
X25025Y117291D01*
X25027Y117262D01*
Y117204D01*
X25025Y117175D01*
X25027Y117145D01*
Y117087D01*
X25025Y117058D01*
X25026Y117031D01*
X25027Y117029D01*
Y116971D01*
X25025Y116941D01*
X25027Y116912D01*
Y116854D01*
X25025Y116825D01*
X25027Y116796D01*
Y116737D01*
X25025Y116708D01*
X25027Y116679D01*
Y116621D01*
X25023Y116569D01*
X25013Y116517D01*
X24996Y116467D01*
X24973Y116420D01*
X24966Y116410D01*
X24965Y116394D01*
X24955Y116342D01*
X24938Y116293D01*
X24915Y116246D01*
X24885Y116202D01*
X24851Y116163D01*
X24812Y116128D01*
X24768Y116099D01*
X24721Y116076D01*
X24671Y116059D01*
X24620Y116049D01*
X24603Y116048D01*
X24593Y116041D01*
X24546Y116017D01*
X24496Y116001D01*
X24445Y115990D01*
X24393Y115987D01*
X24334D01*
X24311Y115989D01*
X24302Y115982D01*
X24255Y115959D01*
X24205Y115942D01*
X24154Y115932D01*
X24101Y115929D01*
X24017D01*
X24010Y115924D01*
X23963Y115901D01*
X23914Y115884D01*
X23862Y115874D01*
X23810Y115870D01*
X23752D01*
X23728Y115872D01*
X23719Y115866D01*
X23672Y115843D01*
X23622Y115826D01*
X23571Y115815D01*
X23518Y115812D01*
X23434D01*
X23427Y115807D01*
X23381Y115784D01*
X23331Y115768D01*
X23279Y115757D01*
X23227Y115754D01*
X23169D01*
X23145Y115755D01*
X23136Y115749D01*
X23089Y115726D01*
X23039Y115709D01*
X22988Y115699D01*
X22936Y115696D01*
X22877D01*
X22848Y115698D01*
X22819Y115696D01*
X22735D01*
X22728Y115691D01*
X22681Y115668D01*
X22669Y115664D01*
X22665Y115652D01*
X22642Y115605D01*
X22635Y115594D01*
X22634Y115578D01*
X22624Y115526D01*
X22607Y115477D01*
X22583Y115430D01*
X22554Y115386D01*
X22520Y115347D01*
X22517Y115344D01*
X22507Y115293D01*
X22490Y115244D01*
X22467Y115197D01*
X22460Y115186D01*
X22459Y115170D01*
X22449Y115119D01*
X22432Y115069D01*
X22409Y115022D01*
X22402Y115011D01*
X22401Y114995D01*
X22390Y114944D01*
X22374Y114894D01*
X22350Y114847D01*
X22321Y114803D01*
X22287Y114764D01*
X22284Y114762D01*
X22274Y114710D01*
X22257Y114661D01*
X22234Y114614D01*
X22227Y114603D01*
X22226Y114587D01*
X22216Y114536D01*
X22199Y114486D01*
X22175Y114439D01*
X22169Y114429D01*
X22167Y114412D01*
X22157Y114361D01*
X22140Y114311D01*
X22121Y114271D01*
X22137Y114253D01*
X22139Y114251D01*
X22161Y114232D01*
X22170Y114224D01*
X22205Y114184D01*
X22234Y114140D01*
X22257Y114093D01*
X22269Y114059D01*
X22292Y114024D01*
X22315Y113977D01*
X22324Y113950D01*
X22345Y113932D01*
X22372Y113901D01*
X22394Y113882D01*
X22403Y113874D01*
X22430Y113843D01*
X22459Y113818D01*
X22461Y113816D01*
X22496Y113776D01*
X22525Y113733D01*
X22548Y113686D01*
X22565Y113636D01*
X22575Y113585D01*
X22578Y113583D01*
X22605Y113551D01*
X22636Y113524D01*
X22664Y113493D01*
X22695Y113466D01*
X22722Y113435D01*
X22753Y113408D01*
X22787Y113368D01*
X22817Y113325D01*
X22840Y113278D01*
X22851Y113243D01*
X22867Y113220D01*
X22875Y113208D01*
X22898Y113161D01*
X22907Y113134D01*
X22919Y113124D01*
X22928Y113116D01*
X22955Y113085D01*
X22986Y113058D01*
X23021Y113019D01*
X23050Y112975D01*
X23073Y112928D01*
X23085Y112893D01*
X23108Y112858D01*
X23131Y112811D01*
X23140Y112785D01*
X23161Y112767D01*
X23195Y112727D01*
X23224Y112684D01*
X23248Y112637D01*
X23265Y112587D01*
X23275Y112536D01*
X23278Y112483D01*
Y112425D01*
Y112367D01*
Y112308D01*
X23275Y112256D01*
X23265Y112205D01*
X23248Y112155D01*
X23224Y112108D01*
X23195Y112064D01*
X23161Y112025D01*
X23130Y111998D01*
X23102Y111967D01*
X23072Y111939D01*
X23044Y111908D01*
X23013Y111881D01*
X22986Y111850D01*
X22955Y111823D01*
X22928Y111792D01*
X22897Y111765D01*
X22872Y111737D01*
X22869Y111733D01*
X22838Y111706D01*
X22815Y111680D01*
X22811Y111675D01*
X22780Y111648D01*
X22753Y111617D01*
X22722Y111590D01*
X22695Y111559D01*
X22664Y111531D01*
X22636Y111500D01*
X22605Y111473D01*
X22578Y111442D01*
X22547Y111415D01*
X22520Y111384D01*
X22489Y111356D01*
X22471Y111337D01*
X22461Y111326D01*
X22452Y111318D01*
X22430Y111298D01*
X22413Y111279D01*
X22403Y111267D01*
X22372Y111240D01*
X22345Y111209D01*
X22314Y111182D01*
X22287Y111151D01*
X22256Y111124D01*
X22228Y111092D01*
X22197Y111065D01*
X22192Y111059D01*
X22170Y111034D01*
X22139Y111007D01*
X22112Y110976D01*
X22081Y110949D01*
X22065Y110930D01*
X22053Y110918D01*
X22023Y110890D01*
X21995Y110859D01*
X21964Y110832D01*
X21937Y110801D01*
X21906Y110774D01*
X21879Y110743D01*
X21848Y110715D01*
X21820Y110685D01*
X21789Y110657D01*
X21762Y110626D01*
X21731Y110599D01*
X21704Y110568D01*
X21673Y110541D01*
X21646Y110510D01*
X21614Y110482D01*
X21590Y110454D01*
X21587Y110451D01*
X21548Y110417D01*
X21504Y110388D01*
X21457Y110364D01*
X21408Y110348D01*
X21356Y110337D01*
X21304Y110334D01*
X21129D01*
X21077Y110337D01*
X21025Y110348D01*
X20976Y110364D01*
X20929Y110388D01*
X20885Y110417D01*
X20846Y110451D01*
X20843Y110454D01*
X20792Y110464D01*
X20742Y110481D01*
X20696Y110504D01*
X20652Y110533D01*
X20613Y110568D01*
X20578Y110607D01*
X20561Y110633D01*
X20535Y110650D01*
X20496Y110685D01*
X20478Y110705D01*
X20451Y110714D01*
X20404Y110737D01*
X20360Y110766D01*
X20321Y110801D01*
X20303Y110822D01*
X20276Y110831D01*
X20229Y110854D01*
X20186Y110883D01*
X20146Y110918D01*
X20144Y110920D01*
X20093Y110930D01*
X20043Y110947D01*
X19996Y110970D01*
X19952Y111000D01*
X19913Y111034D01*
X19879Y111074D01*
X19861Y111099D01*
X19836Y111116D01*
X19797Y111151D01*
X19780Y111169D01*
X19769Y111182D01*
X19738Y111209D01*
X19711Y111240D01*
X19680Y111267D01*
X19678Y111270D01*
X19627Y111280D01*
X19577Y111297D01*
X19530Y111320D01*
X19486Y111349D01*
X19447Y111384D01*
X19437Y111395D01*
X19420Y111415D01*
X19389Y111442D01*
X19375Y111457D01*
X19368Y111455D01*
X19317Y111445D01*
X19315Y111442D01*
X19283Y111415D01*
X19256Y111384D01*
X19217Y111349D01*
X19173Y111320D01*
X19126Y111297D01*
X19076Y111280D01*
X19025Y111270D01*
X19023Y111267D01*
X18984Y111233D01*
X18940Y111204D01*
X18893Y111180D01*
X18843Y111163D01*
X18792Y111153D01*
X18776Y111152D01*
X18765Y111145D01*
X18718Y111122D01*
X18668Y111105D01*
X18617Y111095D01*
X18565Y111092D01*
X18507D01*
X18454Y111095D01*
X18403Y111105D01*
X18353Y111122D01*
X18306Y111145D01*
X18262Y111174D01*
X18223Y111209D01*
X18196Y111240D01*
X18165Y111267D01*
X18137Y111298D01*
X18106Y111326D01*
X18072Y111365D01*
X18043Y111409D01*
X18020Y111456D01*
X18003Y111505D01*
X17992Y111557D01*
X17991Y111573D01*
X17985Y111583D01*
X17961Y111630D01*
X17950Y111665D01*
X17926Y111700D01*
X17903Y111747D01*
X17891Y111782D01*
X17877Y111803D01*
X17868Y111817D01*
X17845Y111864D01*
X17828Y111913D01*
X17818Y111964D01*
X17815Y111967D01*
X17781Y112006D01*
X17751Y112050D01*
X17728Y112097D01*
X17711Y112146D01*
X17701Y112198D01*
X17700Y112214D01*
X17693Y112224D01*
X17670Y112271D01*
X17653Y112321D01*
X17643Y112373D01*
X17642Y112389D01*
X17642Y112389D01*
X17635Y112399D01*
X17612Y112446D01*
X17595Y112496D01*
X17588Y112529D01*
X17585Y112547D01*
X17582Y112549D01*
X17547Y112589D01*
X17518Y112632D01*
X17495Y112679D01*
X17478Y112729D01*
X17468Y112780D01*
X17465Y112783D01*
X17431Y112822D01*
X17402Y112865D01*
X17379Y112912D01*
X17362Y112962D01*
X17352Y113014D01*
X17350Y113030D01*
X17344Y113040D01*
X17320Y113087D01*
X17303Y113137D01*
X17293Y113189D01*
X17292Y113205D01*
X17285Y113215D01*
X17262Y113262D01*
X17245Y113312D01*
X17235Y113363D01*
X17232Y113365D01*
X17198Y113405D01*
X17169Y113448D01*
X17145Y113495D01*
X17129Y113545D01*
X17118Y113596D01*
X17117Y113613D01*
X17110Y113623D01*
X17087Y113670D01*
X17070Y113720D01*
X17060Y113771D01*
X17059Y113788D01*
X17052Y113798D01*
X17029Y113845D01*
X17017Y113880D01*
X16994Y113915D01*
X16971Y113962D01*
X16959Y113996D01*
X16936Y114031D01*
X16912Y114078D01*
X16895Y114128D01*
X16885Y114179D01*
X16885Y114184D01*
X16884Y114196D01*
X16877Y114206D01*
X16854Y114253D01*
X16837Y114303D01*
X16827Y114354D01*
X16826Y114370D01*
X16819Y114381D01*
X16796Y114428D01*
X16779Y114477D01*
X16769Y114529D01*
X16766Y114531D01*
X16732Y114570D01*
X16702Y114614D01*
X16679Y114661D01*
X16662Y114710D01*
X16652Y114762D01*
X16649Y114764D01*
X16615Y114803D01*
X16586Y114847D01*
X16563Y114894D01*
X16546Y114944D01*
X16536Y114995D01*
X16534Y115011D01*
X16528Y115022D01*
X16504Y115069D01*
X16488Y115119D01*
X16477Y115170D01*
X16474Y115222D01*
Y115280D01*
X16477Y115333D01*
X16488Y115384D01*
X16504Y115434D01*
X16528Y115481D01*
X16534Y115491D01*
X16536Y115508D01*
X16546Y115559D01*
X16563Y115609D01*
X16586Y115656D01*
X16615Y115699D01*
X16649Y115739D01*
X16689Y115773D01*
X16733Y115803D01*
X16780Y115826D01*
X16829Y115843D01*
X16880Y115853D01*
X16883Y115855D01*
X16914Y115883D01*
X16941Y115914D01*
X16972Y115941D01*
X16999Y115972D01*
X17039Y116007D01*
X17082Y116036D01*
X17129Y116059D01*
X17179Y116076D01*
X17230Y116086D01*
X17232Y116088D01*
X17263Y116116D01*
X17291Y116147D01*
X17322Y116174D01*
X17349Y116205D01*
X17380Y116232D01*
X17386Y116239D01*
X17407Y116263D01*
X17423Y116277D01*
X17438Y116290D01*
X17465Y116322D01*
X17468Y116324D01*
X17469Y116330D01*
X17478Y116375D01*
X17495Y116425D01*
X17518Y116472D01*
X17547Y116515D01*
X17582Y116555D01*
X17621Y116589D01*
X17647Y116606D01*
X17664Y116632D01*
X17699Y116671D01*
X17701Y116674D01*
X17703Y116682D01*
X17711Y116725D01*
X17728Y116774D01*
X17751Y116821D01*
X17781Y116865D01*
X17815Y116904D01*
X17818Y116907D01*
X17828Y116958D01*
X17845Y117007D01*
X17868Y117054D01*
X17874Y117064D01*
X17873Y117087D01*
Y117145D01*
X17876Y117198D01*
X17886Y117249D01*
X17903Y117299D01*
X17926Y117346D01*
X17932Y117355D01*
X17932Y117357D01*
X17931Y117378D01*
Y117437D01*
X17933Y117466D01*
X17931Y117495D01*
Y117553D01*
X17933Y117582D01*
X17931Y117612D01*
Y117670D01*
X17931Y117678D01*
X17933Y117699D01*
X17931Y117728D01*
Y117787D01*
X17933Y117816D01*
X17931Y117845D01*
Y117903D01*
X17933Y117932D01*
X17931Y117961D01*
Y118020D01*
Y118028D01*
X17929Y118031D01*
X17897Y118067D01*
X17868Y118111D01*
X17845Y118158D01*
X17828Y118207D01*
X17818Y118259D01*
X17814Y118311D01*
Y118337D01*
X17810Y118344D01*
X17786Y118391D01*
X17775Y118425D01*
X17773Y118428D01*
X17751Y118460D01*
X17728Y118507D01*
X17717Y118542D01*
X17693Y118577D01*
X17670Y118624D01*
X17661Y118650D01*
X17661Y118650D01*
X17640Y118669D01*
X17628Y118682D01*
X17613Y118700D01*
X17591Y118719D01*
X17582Y118727D01*
X17547Y118766D01*
X17518Y118810D01*
X17495Y118857D01*
X17487Y118881D01*
X17483Y118892D01*
X17482Y118894D01*
X17460Y118927D01*
X17437Y118974D01*
X17428Y118999D01*
X17428Y119000D01*
X17407Y119018D01*
X17380Y119049D01*
X17349Y119077D01*
X17347Y119079D01*
X17296Y119089D01*
X17246Y119106D01*
X17199Y119129D01*
X17155Y119158D01*
X17116Y119193D01*
X17081Y119232D01*
X17075Y119241D01*
X17064Y119258D01*
X17039Y119275D01*
X16999Y119310D01*
X16981Y119330D01*
X16954Y119339D01*
X16907Y119362D01*
X16872Y119386D01*
X16838Y119398D01*
X16791Y119421D01*
X16781Y119428D01*
X16764Y119429D01*
X16713Y119439D01*
X16663Y119456D01*
X16616Y119479D01*
X16606Y119486D01*
X16589Y119487D01*
X16538Y119497D01*
X16488Y119514D01*
X16441Y119537D01*
X16431Y119544D01*
X16414Y119545D01*
X16363Y119556D01*
X16313Y119572D01*
X16266Y119596D01*
X16258Y119601D01*
X16257Y119602D01*
X16234Y119600D01*
X16175D01*
X16146Y119602D01*
X16117Y119600D01*
X16059D01*
X16030Y119602D01*
X16001Y119600D01*
X15942D01*
X15913Y119602D01*
X15884Y119600D01*
X15826D01*
X15797Y119602D01*
X15767Y119600D01*
X15709D01*
X15686Y119602D01*
X15676Y119596D01*
X15629Y119572D01*
X15580Y119556D01*
X15528Y119545D01*
X15476Y119542D01*
X15418D01*
X15409Y119543D01*
X15393Y119528D01*
X15370Y119508D01*
X15327Y119479D01*
X15280Y119456D01*
X15230Y119439D01*
X15179Y119429D01*
X15177Y119426D01*
X15137Y119392D01*
X15094Y119362D01*
X15047Y119339D01*
X14997Y119323D01*
X14946Y119312D01*
X14944Y119310D01*
X14904Y119275D01*
X14861Y119246D01*
X14814Y119223D01*
X14764Y119206D01*
X14713Y119196D01*
X14710Y119193D01*
X14679Y119166D01*
X14655Y119138D01*
X14652Y119135D01*
X14621Y119108D01*
X14594Y119077D01*
X14563Y119049D01*
X14536Y119018D01*
X14505Y118991D01*
X14477Y118960D01*
X14446Y118933D01*
X14421Y118904D01*
X14419Y118902D01*
X14399Y118884D01*
X14389Y118857D01*
X14366Y118810D01*
X14343Y118775D01*
X14331Y118740D01*
X14308Y118693D01*
X14279Y118650D01*
X14244Y118610D01*
X14242Y118608D01*
X14232Y118557D01*
X14215Y118507D01*
X14191Y118460D01*
X14162Y118417D01*
X14128Y118377D01*
X14129Y118369D01*
Y118311D01*
X14125Y118259D01*
X14115Y118207D01*
X14098Y118158D01*
X14075Y118111D01*
X14046Y118067D01*
X14011Y118028D01*
X14012Y118020D01*
Y117961D01*
X14011Y117941D01*
X14010Y117932D01*
X14012Y117903D01*
Y117845D01*
X14010Y117816D01*
D01*
X14012Y117787D01*
Y117728D01*
X14011Y117707D01*
X14010Y117699D01*
X14012Y117670D01*
Y117612D01*
X14010Y117582D01*
X14012Y117553D01*
Y117495D01*
X14010Y117466D01*
X14012Y117437D01*
Y117378D01*
X14010Y117349D01*
X14012Y117320D01*
Y117262D01*
X14010Y117238D01*
X14017Y117229D01*
X14040Y117182D01*
X14057Y117133D01*
X14067Y117081D01*
X14068Y117065D01*
X14075Y117054D01*
X14098Y117007D01*
X14115Y116958D01*
X14125Y116907D01*
X14128Y116904D01*
X14162Y116865D01*
X14191Y116821D01*
X14215Y116774D01*
X14232Y116725D01*
X14240Y116682D01*
X14242Y116674D01*
X14244Y116671D01*
X14279Y116632D01*
X14308Y116588D01*
X14331Y116541D01*
X14343Y116507D01*
X14366Y116472D01*
X14389Y116425D01*
X14399Y116398D01*
X14419Y116380D01*
X14446Y116349D01*
X14477Y116322D01*
X14505Y116290D01*
X14533Y116265D01*
X14536Y116263D01*
X14563Y116232D01*
X14570Y116226D01*
X14594Y116205D01*
X14621Y116174D01*
X14652Y116147D01*
X14679Y116116D01*
X14710Y116088D01*
X14728Y116068D01*
X14755Y116059D01*
X14802Y116036D01*
X14837Y116012D01*
X14872Y116000D01*
X14919Y115977D01*
X14963Y115948D01*
X15002Y115914D01*
X15029Y115883D01*
X15060Y115855D01*
X15063Y115853D01*
X15114Y115843D01*
X15163Y115826D01*
X15210Y115803D01*
X15254Y115773D01*
X15293Y115739D01*
X15328Y115699D01*
X15357Y115656D01*
X15380Y115609D01*
X15397Y115559D01*
X15407Y115508D01*
X15411Y115455D01*
Y115397D01*
Y115339D01*
Y115280D01*
Y115222D01*
Y115164D01*
X15407Y115112D01*
X15397Y115060D01*
X15380Y115011D01*
X15357Y114963D01*
X15350Y114953D01*
X15349Y114937D01*
X15339Y114885D01*
X15322Y114836D01*
X15299Y114789D01*
X15292Y114778D01*
X15291Y114762D01*
X15280Y114710D01*
X15264Y114661D01*
X15240Y114614D01*
X15211Y114570D01*
X15177Y114531D01*
X15174Y114529D01*
X15164Y114477D01*
X15147Y114428D01*
X15124Y114381D01*
X15117Y114370D01*
X15116Y114354D01*
X15106Y114303D01*
X15089Y114253D01*
X15066Y114206D01*
X15036Y114162D01*
X15002Y114123D01*
X14999Y114121D01*
X14989Y114069D01*
X14972Y114020D01*
X14949Y113973D01*
X14942Y113962D01*
X14941Y113946D01*
X14931Y113895D01*
X14914Y113845D01*
X14891Y113798D01*
X14862Y113754D01*
X14827Y113715D01*
X14827Y113715D01*
X14828Y113707D01*
Y113649D01*
X14825Y113596D01*
X14814Y113545D01*
X14797Y113495D01*
X14774Y113448D01*
X14745Y113405D01*
X14710Y113365D01*
X14708Y113363D01*
X14698Y113312D01*
X14681Y113262D01*
X14658Y113215D01*
X14628Y113172D01*
X14594Y113132D01*
X14591Y113130D01*
X14589Y113116D01*
X14581Y113079D01*
X14564Y113029D01*
X14541Y112982D01*
X14518Y112947D01*
X14506Y112912D01*
X14483Y112865D01*
X14478Y112859D01*
Y112833D01*
X14475Y112780D01*
X14465Y112729D01*
X14448Y112679D01*
X14424Y112632D01*
X14395Y112589D01*
X14361Y112549D01*
X14358Y112547D01*
X14348Y112496D01*
X14331Y112446D01*
X14308Y112399D01*
X14301Y112389D01*
X14300Y112373D01*
X14290Y112321D01*
X14273Y112271D01*
X14250Y112224D01*
X14221Y112181D01*
X14186Y112141D01*
X14183Y112139D01*
X14173Y112088D01*
X14156Y112038D01*
X14133Y111991D01*
X14126Y111981D01*
X14125Y111965D01*
X14115Y111913D01*
X14098Y111864D01*
X14075Y111817D01*
X14046Y111773D01*
X14011Y111733D01*
X14008Y111731D01*
X14006Y111718D01*
X13998Y111680D01*
X13982Y111630D01*
X13958Y111583D01*
X13951Y111573D01*
X13950Y111557D01*
X13940Y111505D01*
X13923Y111456D01*
X13900Y111409D01*
X13871Y111365D01*
X13836Y111326D01*
X13805Y111298D01*
X13778Y111267D01*
X13747Y111240D01*
X13720Y111209D01*
X13680Y111174D01*
X13637Y111145D01*
X13590Y111122D01*
X13540Y111105D01*
X13489Y111095D01*
X13436Y111092D01*
X13378D01*
X13326Y111095D01*
X13274Y111105D01*
X13225Y111122D01*
X13178Y111145D01*
X13167Y111152D01*
X13151Y111153D01*
X13099Y111163D01*
X13050Y111180D01*
X13003Y111204D01*
X12959Y111233D01*
X12920Y111267D01*
X12917Y111270D01*
X12866Y111280D01*
X12817Y111297D01*
X12770Y111320D01*
X12726Y111349D01*
X12687Y111384D01*
X12684Y111387D01*
X12633Y111397D01*
X12584Y111414D01*
X12544Y111433D01*
X12523Y111415D01*
X12506Y111395D01*
X12496Y111384D01*
X12456Y111349D01*
X12413Y111320D01*
X12366Y111297D01*
X12316Y111280D01*
X12265Y111270D01*
X12263Y111267D01*
X12232Y111240D01*
X12215Y111221D01*
X12205Y111209D01*
X12173Y111182D01*
X12146Y111151D01*
X12107Y111116D01*
X12063Y111087D01*
X12016Y111064D01*
X11966Y111047D01*
X11915Y111037D01*
X11913Y111034D01*
X11882Y111007D01*
X11876Y111000D01*
X11855Y110976D01*
X11824Y110949D01*
X11797Y110918D01*
X11757Y110883D01*
X11714Y110854D01*
X11666Y110831D01*
X11617Y110814D01*
X11566Y110804D01*
X11564Y110801D01*
X11532Y110774D01*
X11505Y110743D01*
X11474Y110715D01*
X11447Y110685D01*
X11407Y110650D01*
X11364Y110621D01*
X11317Y110598D01*
X11290Y110589D01*
X11278Y110575D01*
X11272Y110568D01*
X11233Y110533D01*
X11189Y110504D01*
X11142Y110481D01*
X11115Y110472D01*
X11100Y110454D01*
X11097Y110451D01*
X11058Y110417D01*
X11014Y110388D01*
X10967Y110364D01*
X10917Y110348D01*
X10866Y110337D01*
X10814Y110334D01*
X10639D01*
X10587Y110337D01*
X10535Y110348D01*
X10486Y110364D01*
X10439Y110388D01*
X10395Y110417D01*
X10356Y110451D01*
X10328Y110482D01*
X10297Y110510D01*
X10270Y110541D01*
X10239Y110568D01*
X10233Y110575D01*
X10212Y110599D01*
X10181Y110626D01*
X10153Y110657D01*
X10122Y110685D01*
X10102Y110708D01*
X10095Y110715D01*
X10064Y110743D01*
X10037Y110774D01*
X10006Y110801D01*
X9988Y110822D01*
X9979Y110832D01*
X9947Y110859D01*
X9920Y110890D01*
X9889Y110918D01*
X9862Y110949D01*
X9831Y110976D01*
X9804Y111007D01*
X9773Y111034D01*
X9746Y111065D01*
X9714Y111092D01*
X9698Y111111D01*
X9687Y111124D01*
X9656Y111151D01*
X9629Y111182D01*
X9598Y111209D01*
X9571Y111240D01*
X9540Y111267D01*
X9512Y111298D01*
X9493Y111315D01*
X9481Y111326D01*
X9471Y111337D01*
X9454Y111356D01*
X9423Y111384D01*
X9396Y111415D01*
X9365Y111442D01*
X9338Y111473D01*
X9307Y111500D01*
X9279Y111531D01*
X9248Y111559D01*
X9221Y111590D01*
X9190Y111617D01*
X9163Y111648D01*
X9132Y111675D01*
X9104Y111706D01*
X9073Y111733D01*
X9046Y111765D01*
X9015Y111792D01*
X8988Y111823D01*
X8957Y111850D01*
X8930Y111881D01*
X8899Y111908D01*
X8871Y111939D01*
X8840Y111967D01*
X8813Y111998D01*
X8782Y112025D01*
X8747Y112064D01*
X8718Y112108D01*
X8695Y112155D01*
X8678Y112205D01*
X8668Y112256D01*
X8665Y112308D01*
Y112367D01*
Y112425D01*
Y112483D01*
X8668Y112536D01*
X8678Y112587D01*
X8695Y112637D01*
X8718Y112684D01*
X8747Y112727D01*
X8782Y112767D01*
X8788Y112772D01*
X8803Y112785D01*
X8806Y112795D01*
X8812Y112811D01*
X8835Y112858D01*
X8858Y112893D01*
X8870Y112928D01*
X8893Y112975D01*
X8922Y113019D01*
X8957Y113058D01*
X8988Y113085D01*
X9015Y113116D01*
X9036Y113134D01*
X9045Y113161D01*
X9068Y113208D01*
X9091Y113243D01*
X9103Y113278D01*
X9126Y113325D01*
X9155Y113368D01*
X9190Y113408D01*
X9221Y113435D01*
X9248Y113466D01*
X9269Y113484D01*
X9278Y113511D01*
X9301Y113558D01*
X9306Y113565D01*
X9324Y113593D01*
X9336Y113627D01*
X9359Y113674D01*
X9388Y113718D01*
X9423Y113757D01*
X9454Y113785D01*
X9481Y113816D01*
X9502Y113834D01*
X9511Y113860D01*
X9534Y113907D01*
X9549Y113930D01*
X9557Y113942D01*
X9569Y113977D01*
X9592Y114024D01*
X9622Y114068D01*
X9656Y114107D01*
X9687Y114134D01*
X9714Y114165D01*
X9746Y114193D01*
X9773Y114224D01*
X9775Y114226D01*
X9786Y114277D01*
X9800Y114319D01*
X9786Y114361D01*
X9775Y114412D01*
X9773Y114414D01*
X9738Y114454D01*
X9709Y114497D01*
X9686Y114544D01*
X9669Y114594D01*
X9659Y114645D01*
X9658Y114662D01*
X9651Y114672D01*
X9628Y114719D01*
X9611Y114769D01*
X9600Y114820D01*
X9599Y114837D01*
X9592Y114847D01*
X9569Y114894D01*
X9552Y114944D01*
X9542Y114995D01*
X9540Y114997D01*
X9505Y115036D01*
X9476Y115080D01*
X9453Y115127D01*
X9436Y115177D01*
X9426Y115228D01*
X9422Y115280D01*
Y115306D01*
X9418Y115313D01*
X9394Y115360D01*
X9383Y115395D01*
X9359Y115430D01*
X9336Y115477D01*
X9319Y115526D01*
X9315Y115545D01*
X9309Y115577D01*
X9307Y115580D01*
X9272Y115619D01*
X9243Y115663D01*
X9236Y115676D01*
X9234Y115682D01*
X9215Y115691D01*
X9208Y115696D01*
X9124D01*
X9095Y115698D01*
X9065Y115696D01*
X9007D01*
X8955Y115699D01*
X8903Y115709D01*
X8854Y115726D01*
X8807Y115749D01*
X8798Y115755D01*
X8774Y115754D01*
X8716D01*
X8663Y115757D01*
X8612Y115768D01*
X8562Y115784D01*
X8515Y115807D01*
X8508Y115812D01*
X8424D01*
X8395Y115814D01*
X8366Y115812D01*
X8308D01*
X8256Y115815D01*
X8204Y115826D01*
X8154Y115843D01*
X8107Y115866D01*
X8097Y115873D01*
X8081Y115874D01*
X8029Y115884D01*
X7980Y115901D01*
X7933Y115924D01*
X7926Y115929D01*
X7842D01*
X7812Y115931D01*
X7783Y115929D01*
X7725D01*
X7673Y115932D01*
X7621Y115942D01*
X7572Y115959D01*
X7525Y115982D01*
X7514Y115989D01*
X7498Y115990D01*
X7446Y116001D01*
X7397Y116017D01*
X7350Y116041D01*
X7339Y116048D01*
X7323Y116049D01*
X7272Y116059D01*
X7222Y116076D01*
X7175Y116099D01*
X7131Y116128D01*
X7092Y116163D01*
X7065Y116194D01*
X7034Y116221D01*
X6999Y116260D01*
X6970Y116304D01*
X6947Y116351D01*
X6930Y116401D01*
X6920Y116452D01*
X6916Y116504D01*
Y116563D01*
Y116621D01*
Y116679D01*
Y116737D01*
Y116796D01*
Y116854D01*
Y116912D01*
Y116971D01*
Y117029D01*
Y117087D01*
Y117145D01*
Y117204D01*
Y117262D01*
Y117320D01*
Y117378D01*
Y117437D01*
Y117495D01*
Y117553D01*
Y117612D01*
Y117670D01*
Y117728D01*
Y117787D01*
Y117845D01*
Y117903D01*
Y117961D01*
Y118020D01*
Y118078D01*
Y118136D01*
Y118194D01*
Y118253D01*
Y118311D01*
Y118369D01*
Y118428D01*
Y118486D01*
Y118544D01*
Y118602D01*
Y118661D01*
Y118719D01*
Y118777D01*
X6920Y118830D01*
X6930Y118881D01*
X6947Y118931D01*
X6970Y118978D01*
X6999Y119021D01*
X7034Y119061D01*
X7065Y119088D01*
X7092Y119119D01*
X7094Y119121D01*
X7123Y119146D01*
X7150Y119177D01*
X7190Y119212D01*
X7233Y119241D01*
X7280Y119264D01*
X7330Y119281D01*
X7381Y119291D01*
X7434Y119295D01*
X7492D01*
X7515Y119293D01*
X7525Y119299D01*
X7572Y119322D01*
X7621Y119339D01*
X7673Y119350D01*
X7725Y119353D01*
X7783D01*
X7812Y119351D01*
X7842Y119353D01*
X7926D01*
X7933Y119358D01*
X7980Y119381D01*
X8029Y119397D01*
X8081Y119408D01*
X8097Y119409D01*
X8107Y119416D01*
X8154Y119439D01*
X8204Y119456D01*
X8256Y119466D01*
X8308Y119469D01*
X8366D01*
X8395Y119468D01*
X8424Y119469D01*
X8508D01*
X8515Y119474D01*
X8562Y119497D01*
X8612Y119514D01*
X8663Y119524D01*
X8716Y119528D01*
X8774D01*
X8798Y119526D01*
X8807Y119532D01*
X8854Y119555D01*
X8903Y119572D01*
X8955Y119583D01*
X9007Y119586D01*
X9208D01*
X9215Y119591D01*
X9262Y119614D01*
X9311Y119631D01*
X9318Y119632D01*
X9319Y119639D01*
X9336Y119688D01*
X9359Y119735D01*
X9383Y119770D01*
X9394Y119805D01*
X9418Y119852D01*
X9441Y119887D01*
X9453Y119921D01*
X9476Y119968D01*
X9483Y119979D01*
X9484Y119995D01*
X9494Y120046D01*
X9511Y120096D01*
X9534Y120143D01*
X9563Y120187D01*
X9598Y120226D01*
X9601Y120229D01*
X9607Y120260D01*
X9611Y120280D01*
X9628Y120329D01*
X9651Y120376D01*
X9658Y120387D01*
X9659Y120403D01*
X9669Y120455D01*
X9686Y120504D01*
X9709Y120551D01*
X9732Y120586D01*
X9744Y120621D01*
X9767Y120668D01*
X9791Y120703D01*
X9802Y120737D01*
X9826Y120784D01*
X9832Y120795D01*
X9834Y120811D01*
X9844Y120862D01*
X9848Y120875D01*
X9826Y120908D01*
X9802Y120955D01*
X9786Y121005D01*
X9775Y121056D01*
X9773Y121058D01*
X9746Y121089D01*
X9714Y121116D01*
X9687Y121147D01*
X9656Y121175D01*
X9622Y121214D01*
X9592Y121258D01*
X9569Y121305D01*
X9552Y121354D01*
X9542Y121405D01*
X9540Y121408D01*
X9512Y121439D01*
X9481Y121466D01*
X9454Y121497D01*
X9423Y121524D01*
X9388Y121564D01*
X9359Y121607D01*
X9336Y121654D01*
X9319Y121704D01*
X9309Y121755D01*
X9307Y121757D01*
X9279Y121788D01*
X9248Y121816D01*
X9221Y121847D01*
X9190Y121874D01*
X9155Y121913D01*
X9126Y121957D01*
X9103Y122004D01*
X9102Y122008D01*
X9091Y122038D01*
X9068Y122073D01*
X9045Y122120D01*
X9036Y122147D01*
X9015Y122165D01*
X8988Y122196D01*
X8957Y122224D01*
X8922Y122263D01*
X8893Y122307D01*
X8870Y122354D01*
X8858Y122388D01*
X8835Y122423D01*
X8812Y122470D01*
X8803Y122497D01*
X8782Y122515D01*
X8747Y122554D01*
X8718Y122598D01*
X8695Y122645D01*
X8678Y122695D01*
X8668Y122746D01*
X8665Y122798D01*
Y122857D01*
Y122915D01*
Y122973D01*
X8668Y123026D01*
X8678Y123077D01*
X8695Y123127D01*
X8718Y123174D01*
X8747Y123217D01*
X8782Y123257D01*
X8813Y123284D01*
X8840Y123315D01*
X8871Y123342D01*
X8899Y123373D01*
X8930Y123400D01*
X8957Y123432D01*
X8988Y123459D01*
X9015Y123490D01*
X9046Y123517D01*
X9073Y123548D01*
X9104Y123575D01*
X9132Y123606D01*
X9163Y123634D01*
X9190Y123665D01*
X9221Y123692D01*
X9248Y123723D01*
X9279Y123750D01*
X9307Y123781D01*
X9338Y123809D01*
X9365Y123839D01*
X9396Y123867D01*
X9423Y123898D01*
X9454Y123925D01*
X9481Y123956D01*
X9512Y123983D01*
X9540Y124014D01*
X9571Y124042D01*
X9598Y124073D01*
X9629Y124100D01*
X9656Y124131D01*
X9687Y124158D01*
X9714Y124189D01*
X9746Y124216D01*
X9773Y124247D01*
X9804Y124275D01*
X9831Y124306D01*
X9862Y124333D01*
X9889Y124364D01*
X9920Y124391D01*
X9947Y124422D01*
X9979Y124450D01*
X10006Y124480D01*
X10037Y124508D01*
X10064Y124539D01*
X10095Y124566D01*
X10122Y124597D01*
X10153Y124624D01*
X10181Y124655D01*
X10212Y124683D01*
X10239Y124714D01*
X10270Y124741D01*
X10297Y124772D01*
X10328Y124799D01*
X10356Y124830D01*
X10395Y124865D01*
X10439Y124894D01*
X10486Y124917D01*
X10535Y124934D01*
X10587Y124944D01*
X10639Y124948D01*
X10814D01*
X10866Y124944D01*
X10917Y124934D01*
X10967Y124917D01*
X11014Y124894D01*
X11058Y124865D01*
X11097Y124830D01*
X11115Y124810D01*
X11142Y124801D01*
X11189Y124777D01*
X11224Y124754D01*
X11259Y124742D01*
X11306Y124719D01*
X11349Y124690D01*
X11389Y124655D01*
X11416Y124624D01*
X11447Y124597D01*
X11465Y124576D01*
X11492Y124567D01*
X11539Y124544D01*
X11582Y124515D01*
X11622Y124480D01*
X11640Y124460D01*
X11666Y124451D01*
X11714Y124428D01*
X11757Y124399D01*
X11797Y124364D01*
X11824Y124333D01*
X11855Y124306D01*
X11882Y124275D01*
X11913Y124247D01*
X11915Y124245D01*
X11966Y124235D01*
X12016Y124218D01*
X12063Y124195D01*
X12107Y124165D01*
X12146Y124131D01*
X12173Y124100D01*
X12205Y124073D01*
X12232Y124042D01*
X12263Y124014D01*
X12265Y124012D01*
X12316Y124002D01*
X12366Y123985D01*
X12413Y123961D01*
X12456Y123932D01*
X12496Y123898D01*
X12523Y123867D01*
X12542Y123850D01*
X12554Y123839D01*
X12581Y123808D01*
X12612Y123781D01*
X12615Y123778D01*
X12666Y123768D01*
X12716Y123751D01*
X12763Y123728D01*
X12766Y123726D01*
X12770Y123728D01*
X12817Y123751D01*
X12866Y123768D01*
X12874Y123770D01*
X12917Y123778D01*
X12920Y123781D01*
X12959Y123816D01*
X13003Y123845D01*
X13050Y123868D01*
X13099Y123885D01*
X13151Y123895D01*
X13167Y123896D01*
X13178Y123903D01*
X13225Y123926D01*
X13274Y123943D01*
X13326Y123953D01*
X13342Y123954D01*
X13352Y123961D01*
X13399Y123985D01*
X13449Y124002D01*
X13500Y124012D01*
X13502Y124014D01*
X13542Y124049D01*
X13586Y124078D01*
X13633Y124101D01*
X13682Y124118D01*
X13734Y124128D01*
X13750Y124129D01*
X13760Y124136D01*
X13807Y124160D01*
X13857Y124176D01*
X13908Y124187D01*
X13925Y124188D01*
X13935Y124195D01*
X13956Y124205D01*
X13969Y124211D01*
X13970Y124226D01*
X13968Y124255D01*
Y124314D01*
X13970Y124343D01*
X13968Y124372D01*
Y124430D01*
X13971Y124483D01*
X13982Y124534D01*
X13998Y124584D01*
X14022Y124631D01*
X14029Y124641D01*
X14030Y124657D01*
X14040Y124709D01*
X14057Y124758D01*
X14080Y124805D01*
X14086Y124815D01*
X14085Y124838D01*
Y124896D01*
X14086Y124926D01*
X14086Y124934D01*
X14085Y124955D01*
Y125013D01*
X14088Y125065D01*
X14098Y125117D01*
X14115Y125166D01*
X14138Y125213D01*
X14145Y125224D01*
X14146Y125240D01*
X14156Y125292D01*
X14173Y125341D01*
X14196Y125388D01*
X14202Y125397D01*
X14201Y125421D01*
Y125479D01*
X14203Y125508D01*
X14201Y125538D01*
Y125596D01*
X14204Y125648D01*
X14215Y125699D01*
X14232Y125749D01*
X14255Y125796D01*
X14261Y125805D01*
X14259Y125829D01*
Y125887D01*
X14263Y125940D01*
X14273Y125991D01*
X14290Y126041D01*
X14313Y126088D01*
X14319Y126097D01*
X14318Y126120D01*
Y126179D01*
X14321Y126231D01*
X14331Y126282D01*
X14348Y126332D01*
X14371Y126379D01*
X14400Y126423D01*
X14435Y126462D01*
X14466Y126489D01*
X14493Y126520D01*
X14524Y126548D01*
X14551Y126579D01*
X14591Y126613D01*
X14635Y126642D01*
X14682Y126665D01*
X14731Y126682D01*
X14783Y126692D01*
X14835Y126696D01*
X17108D01*
X17160Y126692D01*
D02*
G37*
D13*
X1202756Y-96461D02*
Y-110236D01*
X1209643D01*
X1211939Y-107940D01*
Y-105645D01*
X1209643Y-103349D01*
X1202756D01*
X1209643D01*
X1211939Y-101053D01*
Y-98757D01*
X1209643Y-96461D01*
X1202756D01*
X1218827Y-110236D02*
X1223419D01*
X1225714Y-107940D01*
Y-103349D01*
X1223419Y-101053D01*
X1218827D01*
X1216531Y-103349D01*
Y-107940D01*
X1218827Y-110236D01*
X1232602Y-98757D02*
Y-101053D01*
X1230306D01*
X1234898D01*
X1232602D01*
Y-107940D01*
X1234898Y-110236D01*
X1244081Y-98757D02*
Y-101053D01*
X1241785D01*
X1246377D01*
X1244081D01*
Y-107940D01*
X1246377Y-110236D01*
X1255560D02*
X1260152D01*
X1262448Y-107940D01*
Y-103349D01*
X1260152Y-101053D01*
X1255560D01*
X1253265Y-103349D01*
Y-107940D01*
X1255560Y-110236D01*
X1267040D02*
Y-101053D01*
X1269335D01*
X1271631Y-103349D01*
Y-110236D01*
Y-103349D01*
X1273927Y-101053D01*
X1276223Y-103349D01*
Y-110236D01*
X1303773Y-98757D02*
X1301477Y-96461D01*
X1296886D01*
X1294590Y-98757D01*
Y-101053D01*
X1296886Y-103349D01*
X1301477D01*
X1303773Y-105645D01*
Y-107940D01*
X1301477Y-110236D01*
X1296886D01*
X1294590Y-107940D01*
X1310661Y-110236D02*
X1315252D01*
X1317548Y-107940D01*
Y-103349D01*
X1315252Y-101053D01*
X1310661D01*
X1308365Y-103349D01*
Y-107940D01*
X1310661Y-110236D01*
X1322140D02*
X1326732D01*
X1324436D01*
Y-96461D01*
X1322140D01*
X1342803D02*
Y-110236D01*
X1335915D01*
X1333619Y-107940D01*
Y-103349D01*
X1335915Y-101053D01*
X1342803D01*
X1354282Y-110236D02*
X1349690D01*
X1347394Y-107940D01*
Y-103349D01*
X1349690Y-101053D01*
X1354282D01*
X1356578Y-103349D01*
Y-105645D01*
X1347394D01*
X1361169Y-101053D02*
Y-110236D01*
Y-105645D01*
X1363465Y-103349D01*
X1365761Y-101053D01*
X1368057D01*
X1005906Y-175202D02*
Y-190945D01*
X1011153Y-185697D01*
X1016401Y-190945D01*
Y-175202D01*
X1021649Y-190945D02*
X1026896D01*
X1024272D01*
Y-180450D01*
X1021649D01*
X1034768Y-190945D02*
Y-180450D01*
X1037391D01*
X1040015Y-183073D01*
Y-190945D01*
Y-183073D01*
X1042639Y-180450D01*
X1045263Y-183073D01*
Y-190945D01*
X1050511Y-175202D02*
Y-185697D01*
X1055758Y-190945D01*
X1061006Y-185697D01*
Y-175202D01*
X1076749Y-177826D02*
X1074125Y-175202D01*
X1068877D01*
X1066253Y-177826D01*
Y-188321D01*
X1068877Y-190945D01*
X1074125D01*
X1076749Y-188321D01*
Y-183073D01*
X1071501D01*
X1360236Y-138456D02*
X1362860Y-135832D01*
X1368108D01*
X1370732Y-138456D01*
Y-148951D01*
X1368108Y-151575D01*
X1362860D01*
X1360236Y-148951D01*
Y-138456D01*
X1375979D02*
X1378603Y-135832D01*
X1383851D01*
X1386475Y-138456D01*
Y-148951D01*
X1383851Y-151575D01*
X1378603D01*
X1375979Y-148951D01*
Y-138456D01*
X1206034Y-151575D02*
X1196850D01*
X1206034Y-142391D01*
Y-140096D01*
X1203738Y-137800D01*
X1199146D01*
X1196850Y-140096D01*
X1210625Y-137800D02*
X1219809D01*
Y-140096D01*
X1210625Y-149279D01*
Y-151575D01*
X1224401D02*
X1233584Y-142391D01*
X1238176Y-140096D02*
X1240471Y-137800D01*
X1245063D01*
X1247359Y-140096D01*
Y-149279D01*
X1245063Y-151575D01*
X1240471D01*
X1238176Y-149279D01*
Y-140096D01*
X1251951D02*
X1254247Y-137800D01*
X1258838D01*
X1261134Y-140096D01*
Y-142391D01*
X1258838Y-144687D01*
X1261134Y-146983D01*
Y-149279D01*
X1258838Y-151575D01*
X1254247D01*
X1251951Y-149279D01*
Y-146983D01*
X1254247Y-144687D01*
X1251951Y-142391D01*
Y-140096D01*
X1254247Y-144687D02*
X1258838D01*
X1265726Y-151575D02*
X1274909Y-142391D01*
X1288684Y-151575D02*
X1279501D01*
X1288684Y-142391D01*
Y-140096D01*
X1286388Y-137800D01*
X1281797D01*
X1279501Y-140096D01*
X1293276D02*
X1295572Y-137800D01*
X1300163D01*
X1302459Y-140096D01*
Y-149279D01*
X1300163Y-151575D01*
X1295572D01*
X1293276Y-149279D01*
Y-140096D01*
X1307051Y-151575D02*
X1311643D01*
X1309347D01*
Y-137800D01*
X1307051Y-140096D01*
X1327714Y-137800D02*
X1318530D01*
Y-144687D01*
X1323122Y-142391D01*
X1325418D01*
X1327714Y-144687D01*
Y-149279D01*
X1325418Y-151575D01*
X1320826D01*
X1318530Y-149279D01*
X1190945Y-57092D02*
Y-72835D01*
Y-64963D01*
X1201440D01*
Y-57092D01*
Y-72835D01*
X1206688Y-57092D02*
Y-72835D01*
X1214559D01*
X1217183Y-70211D01*
Y-59715D01*
X1214559Y-57092D01*
X1206688D01*
X1222431Y-72835D02*
Y-57092D01*
X1230302D01*
X1232926Y-59715D01*
Y-64963D01*
X1230302Y-67587D01*
X1222431D01*
X1227678D02*
X1232926Y-72835D01*
X1238174Y-75459D02*
X1248669D01*
X1253917Y-72835D02*
Y-57092D01*
X1261788D01*
X1264412Y-59715D01*
Y-64963D01*
X1261788Y-67587D01*
X1253917D01*
X1269660Y-72835D02*
Y-62339D01*
X1274907Y-57092D01*
X1280155Y-62339D01*
Y-72835D01*
Y-64963D01*
X1269660D01*
X1285402Y-57092D02*
X1295898D01*
X1290650D01*
Y-72835D01*
X1311641Y-59715D02*
X1309017Y-57092D01*
X1303769D01*
X1301145Y-59715D01*
Y-70211D01*
X1303769Y-72835D01*
X1309017D01*
X1311641Y-70211D01*
X1316888Y-57092D02*
Y-72835D01*
Y-64963D01*
X1327384D01*
Y-57092D01*
Y-72835D01*
D15*
X0Y15748D02*
G03*
X15748Y0I15748J0D01*
G01*
X181102D02*
G03*
X196850Y15748I0J15748D01*
G01*
X15748Y196850D02*
G03*
X0Y181102I0J-15748D01*
G01*
X196850D02*
G03*
X181102Y196850I-15748J0D01*
G01*
X15748Y0D02*
X181102D01*
X0Y15748D02*
Y181102D01*
X15748Y196850D02*
X181102D01*
X196850Y15748D02*
Y181102D01*
X1338583Y-157480D02*
Y-118110D01*
X1181102Y-78740D02*
X1456693D01*
X1181102Y-118110D02*
X1456693D01*
X984252Y-157480D02*
X1456693D01*
X984252Y-39370D02*
X1456693D01*
X984252Y-196850D02*
Y-39370D01*
X1181102Y-196850D02*
Y-39370D01*
X-196850Y972441D02*
X1456693D01*
Y-196850D02*
Y972441D01*
X-196850Y-196850D02*
Y972441D01*
Y-196850D02*
X1456693D01*
X1190945Y-183073D02*
Y-188976D01*
Y-186025D01*
X1194881D01*
Y-183073D01*
Y-188976D01*
X1196848Y-183073D02*
Y-188976D01*
X1199800D01*
X1200784Y-187993D01*
Y-184057D01*
X1199800Y-183073D01*
X1196848D01*
X1202752Y-188976D02*
Y-183073D01*
X1205704D01*
X1206688Y-184057D01*
Y-186025D01*
X1205704Y-187009D01*
X1202752D01*
X1204720D02*
X1206688Y-188976D01*
X1208656Y-189960D02*
X1212591D01*
X1214559Y-188976D02*
Y-183073D01*
X1217511D01*
X1218495Y-184057D01*
Y-186025D01*
X1217511Y-187009D01*
X1214559D01*
X1220463Y-188976D02*
Y-185041D01*
X1222431Y-183073D01*
X1224399Y-185041D01*
Y-188976D01*
Y-186025D01*
X1220463D01*
X1226367Y-183073D02*
X1230302D01*
X1228334D01*
Y-188976D01*
X1236206Y-184057D02*
X1235222Y-183073D01*
X1233254D01*
X1232270Y-184057D01*
Y-187993D01*
X1233254Y-188976D01*
X1235222D01*
X1236206Y-187993D01*
X1238174Y-183073D02*
Y-188976D01*
Y-186025D01*
X1242109D01*
Y-183073D01*
Y-188976D01*
X1244077Y-189960D02*
X1248013D01*
X1249981Y-184057D02*
X1250965Y-183073D01*
X1252933D01*
X1253917Y-184057D01*
Y-187993D01*
X1252933Y-188976D01*
X1250965D01*
X1249981Y-187993D01*
Y-184057D01*
X1255884D02*
X1256868Y-183073D01*
X1258836D01*
X1259820Y-184057D01*
Y-187993D01*
X1258836Y-188976D01*
X1256868D01*
X1255884Y-187993D01*
Y-184057D01*
X1261788Y-188976D02*
Y-187993D01*
X1262772D01*
Y-188976D01*
X1261788D01*
X1266708D02*
Y-183073D01*
X1269660D01*
X1270644Y-184057D01*
Y-186025D01*
X1269660Y-187009D01*
X1266708D01*
X1276547Y-185041D02*
X1273595D01*
X1272611Y-186025D01*
Y-187993D01*
X1273595Y-188976D01*
X1276547D01*
X1278515Y-183073D02*
Y-188976D01*
X1281467D01*
X1282451Y-187993D01*
Y-187009D01*
Y-186025D01*
X1281467Y-185041D01*
X1278515D01*
X1284418Y-183073D02*
Y-188976D01*
X1287370D01*
X1288354Y-187993D01*
Y-184057D01*
X1287370Y-183073D01*
X1284418D01*
X1291306Y-188976D02*
X1293274D01*
X1294258Y-187993D01*
Y-186025D01*
X1293274Y-185041D01*
X1291306D01*
X1290322Y-186025D01*
Y-187993D01*
X1291306Y-188976D01*
X1300161Y-185041D02*
X1297210D01*
X1296226Y-186025D01*
Y-187993D01*
X1297210Y-188976D01*
X1300161D01*
D16*
X1342520Y-129921D02*
Y-122050D01*
X1346455D01*
X1347767Y-123362D01*
Y-125986D01*
X1346455Y-127297D01*
X1342520D01*
X1345144D02*
X1347767Y-129921D01*
X1354327D02*
X1351703D01*
X1350391Y-128609D01*
Y-125986D01*
X1351703Y-124674D01*
X1354327D01*
X1355639Y-125986D01*
Y-127297D01*
X1350391D01*
X1358263Y-124674D02*
X1360886Y-129921D01*
X1363510Y-124674D01*
X988189Y-161420D02*
Y-169291D01*
X992125D01*
X993437Y-167979D01*
Y-162732D01*
X992125Y-161420D01*
X988189D01*
X999996Y-169291D02*
X997372D01*
X996060Y-167979D01*
Y-165356D01*
X997372Y-164044D01*
X999996D01*
X1001308Y-165356D01*
Y-166667D01*
X996060D01*
X1003932Y-169291D02*
X1007868D01*
X1009180Y-167979D01*
X1007868Y-166667D01*
X1005244D01*
X1003932Y-165356D01*
X1005244Y-164044D01*
X1009180D01*
X1014427Y-171915D02*
X1015739D01*
X1017051Y-170603D01*
Y-164044D01*
X1013115D01*
X1011803Y-165356D01*
Y-167979D01*
X1013115Y-169291D01*
X1017051D01*
X1019675D02*
X1022299D01*
X1020987D01*
Y-164044D01*
X1019675D01*
X1026235Y-169291D02*
Y-164044D01*
X1030170D01*
X1031482Y-165356D01*
Y-169291D01*
X1038042D02*
X1035418D01*
X1034106Y-167979D01*
Y-165356D01*
X1035418Y-164044D01*
X1038042D01*
X1039354Y-165356D01*
Y-166667D01*
X1034106D01*
X1041977Y-164044D02*
Y-169291D01*
Y-166667D01*
X1043289Y-165356D01*
X1044601Y-164044D01*
X1045913D01*
X1185039Y-43310D02*
Y-51181D01*
X1188975D01*
X1190287Y-49869D01*
Y-44622D01*
X1188975Y-43310D01*
X1185039D01*
X1194223Y-51181D02*
X1196847D01*
X1198158Y-49869D01*
Y-47245D01*
X1196847Y-45933D01*
X1194223D01*
X1192911Y-47245D01*
Y-49869D01*
X1194223Y-51181D01*
X1206030Y-45933D02*
X1202094D01*
X1200782Y-47245D01*
Y-49869D01*
X1202094Y-51181D01*
X1206030D01*
X1208654Y-45933D02*
Y-49869D01*
X1209966Y-51181D01*
X1213902D01*
Y-45933D01*
X1216525Y-51181D02*
Y-45933D01*
X1217837D01*
X1219149Y-47245D01*
Y-51181D01*
Y-47245D01*
X1220461Y-45933D01*
X1221773Y-47245D01*
Y-51181D01*
X1228333D02*
X1225709D01*
X1224397Y-49869D01*
Y-47245D01*
X1225709Y-45933D01*
X1228333D01*
X1229644Y-47245D01*
Y-48557D01*
X1224397D01*
X1232268Y-51181D02*
Y-45933D01*
X1236204D01*
X1237516Y-47245D01*
Y-51181D01*
X1241452Y-44622D02*
Y-45933D01*
X1240140D01*
X1242764D01*
X1241452D01*
Y-49869D01*
X1242764Y-51181D01*
X1185039Y-82680D02*
Y-90551D01*
X1190287D01*
X1194223Y-85303D02*
X1196847D01*
X1198158Y-86615D01*
Y-90551D01*
X1194223D01*
X1192911Y-89239D01*
X1194223Y-87927D01*
X1198158D01*
X1200782Y-85303D02*
Y-89239D01*
X1202094Y-90551D01*
X1206030D01*
Y-91863D01*
X1204718Y-93175D01*
X1203406D01*
X1206030Y-90551D02*
Y-85303D01*
X1212590Y-90551D02*
X1209966D01*
X1208654Y-89239D01*
Y-86615D01*
X1209966Y-85303D01*
X1212590D01*
X1213902Y-86615D01*
Y-87927D01*
X1208654D01*
X1216525Y-85303D02*
Y-90551D01*
Y-87927D01*
X1217837Y-86615D01*
X1219149Y-85303D01*
X1220461D01*
X1232268Y-90551D02*
Y-82680D01*
X1237516Y-90551D01*
Y-82680D01*
X1241452Y-85303D02*
X1244075D01*
X1245387Y-86615D01*
Y-90551D01*
X1241452D01*
X1240140Y-89239D01*
X1241452Y-87927D01*
X1245387D01*
X1248011Y-90551D02*
Y-85303D01*
X1249323D01*
X1250635Y-86615D01*
Y-90551D01*
Y-86615D01*
X1251947Y-85303D01*
X1253259Y-86615D01*
Y-90551D01*
X1259818D02*
X1257195D01*
X1255883Y-89239D01*
Y-86615D01*
X1257195Y-85303D01*
X1259818D01*
X1261130Y-86615D01*
Y-87927D01*
X1255883D01*
X1185039Y-122050D02*
Y-129921D01*
X1188975D01*
X1190287Y-128609D01*
Y-123362D01*
X1188975Y-122050D01*
X1185039D01*
X1194223Y-124674D02*
X1196847D01*
X1198158Y-125986D01*
Y-129921D01*
X1194223D01*
X1192911Y-128609D01*
X1194223Y-127297D01*
X1198158D01*
X1202094Y-123362D02*
Y-124674D01*
X1200782D01*
X1203406D01*
X1202094D01*
Y-128609D01*
X1203406Y-129921D01*
X1211278D02*
X1208654D01*
X1207342Y-128609D01*
Y-125986D01*
X1208654Y-124674D01*
X1211278D01*
X1212589Y-125986D01*
Y-127297D01*
X1207342D01*
X1185039Y-161420D02*
Y-169291D01*
X1188975D01*
X1190287Y-167979D01*
Y-162732D01*
X1188975Y-161420D01*
X1185039D01*
X1194223Y-169291D02*
X1196847D01*
X1198158Y-167979D01*
Y-165356D01*
X1196847Y-164044D01*
X1194223D01*
X1192911Y-165356D01*
Y-167979D01*
X1194223Y-169291D01*
X1206030Y-164044D02*
X1202094D01*
X1200782Y-165356D01*
Y-167979D01*
X1202094Y-169291D01*
X1206030D01*
X1208654Y-164044D02*
Y-167979D01*
X1209966Y-169291D01*
X1213902D01*
Y-164044D01*
X1216525Y-169291D02*
Y-164044D01*
X1217837D01*
X1219149Y-165356D01*
Y-169291D01*
Y-165356D01*
X1220461Y-164044D01*
X1221773Y-165356D01*
Y-169291D01*
X1228333D02*
X1225709D01*
X1224397Y-167979D01*
Y-165356D01*
X1225709Y-164044D01*
X1228333D01*
X1229644Y-165356D01*
Y-166667D01*
X1224397D01*
X1232268Y-169291D02*
Y-164044D01*
X1236204D01*
X1237516Y-165356D01*
Y-169291D01*
X1241452Y-162732D02*
Y-164044D01*
X1240140D01*
X1242764D01*
X1241452D01*
Y-167979D01*
X1242764Y-169291D01*
D27*
X20925Y50984D02*
D03*
X25925Y50984D02*
D03*
X30925D02*
D03*
X35925Y50984D02*
D03*
X40925Y50984D02*
D03*
X20926Y35630D02*
D03*
X25925Y35630D02*
D03*
X30926Y35630D02*
D03*
X35926D02*
D03*
X40925Y35630D02*
D03*
X175925D02*
D03*
X170926Y35630D02*
D03*
X165926D02*
D03*
X160925Y35630D02*
D03*
X155926Y35630D02*
D03*
X175925Y50984D02*
D03*
X170925Y50984D02*
D03*
X165925Y50984D02*
D03*
X160925D02*
D03*
X155925Y50984D02*
D03*
X120925Y50984D02*
D03*
X120925Y35630D02*
D03*
X115925Y50984D02*
D03*
X115925Y35630D02*
D03*
X110925Y50984D02*
D03*
X110925Y35630D02*
D03*
X105925Y50984D02*
D03*
X105925Y35630D02*
D03*
X100925D02*
D03*
X100925Y50984D02*
D03*
X75925Y50984D02*
D03*
X80925Y50984D02*
D03*
X85925D02*
D03*
X90925Y50984D02*
D03*
X95925Y50984D02*
D03*
X75926Y35630D02*
D03*
X80925Y35630D02*
D03*
X85926Y35630D02*
D03*
X90926D02*
D03*
X95925Y35630D02*
D03*
X125925Y35630D02*
D03*
X125925Y50984D02*
D03*
X130924D02*
D03*
X130925Y35630D02*
D03*
X135925D02*
D03*
X135924Y50984D02*
D03*
X140925Y35630D02*
D03*
X140925Y50984D02*
D03*
X145925Y35630D02*
D03*
X145924Y50984D02*
D03*
X150925Y35630D02*
D03*
X150925Y50984D02*
D03*
X70926Y35630D02*
D03*
X70926Y50984D02*
D03*
X65926D02*
D03*
X65926Y35630D02*
D03*
X60926D02*
D03*
X60926Y50984D02*
D03*
X55926Y35630D02*
D03*
X55926Y50984D02*
D03*
X50926Y35630D02*
D03*
X50926Y50984D02*
D03*
X45926Y35630D02*
D03*
X45926Y50984D02*
D03*
Y22245D02*
D03*
X50926D02*
D03*
X55926D02*
D03*
X60926D02*
D03*
X65926D02*
D03*
X70926D02*
D03*
X150925Y22245D02*
D03*
X145925D02*
D03*
X140925D02*
D03*
X135925D02*
D03*
X130925D02*
D03*
X125925D02*
D03*
X95926Y22245D02*
D03*
X90926Y22245D02*
D03*
X85926D02*
D03*
X80926Y22245D02*
D03*
X75926Y22245D02*
D03*
X100926Y22245D02*
D03*
X105926D02*
D03*
X110926D02*
D03*
X115926D02*
D03*
X120926D02*
D03*
X155926Y22245D02*
D03*
X160926Y22245D02*
D03*
X40926D02*
D03*
X35926Y22245D02*
D03*
X35926Y8859D02*
D03*
X40926Y8859D02*
D03*
X160926D02*
D03*
X155926Y8859D02*
D03*
X120926Y8859D02*
D03*
X115926D02*
D03*
X110926D02*
D03*
X105926D02*
D03*
X100926D02*
D03*
X75926Y8859D02*
D03*
X80926Y8859D02*
D03*
X85926Y8859D02*
D03*
X90926D02*
D03*
X95926Y8859D02*
D03*
X125926Y8859D02*
D03*
X130926D02*
D03*
X135926D02*
D03*
X140926D02*
D03*
X145926D02*
D03*
X150926D02*
D03*
X70927Y8859D02*
D03*
X65927D02*
D03*
X60927D02*
D03*
X55927D02*
D03*
X50927D02*
D03*
X45927D02*
D03*
X180925Y50984D02*
D03*
X185925Y50984D02*
D03*
X190925Y50984D02*
D03*
X180926Y35630D02*
D03*
X185926D02*
D03*
X190925Y35630D02*
D03*
X15926Y50984D02*
D03*
X10926Y50984D02*
D03*
X5926Y50984D02*
D03*
X15925Y35630D02*
D03*
X10925D02*
D03*
X5926Y35630D02*
D03*
X125925Y70984D02*
D03*
X95925Y70984D02*
D03*
X90926Y70984D02*
D03*
X100925Y70984D02*
D03*
X105925D02*
D03*
X110925D02*
D03*
X115925D02*
D03*
X120925D02*
D03*
X120925Y86338D02*
D03*
X115925D02*
D03*
X110925D02*
D03*
X105925D02*
D03*
X100925D02*
D03*
X95925D02*
D03*
X90925Y86338D02*
D03*
X125926Y86338D02*
D03*
X120924Y101692D02*
D03*
X115924D02*
D03*
X110924D02*
D03*
X105924D02*
D03*
X100924D02*
D03*
X95924D02*
D03*
X90925Y101692D02*
D03*
X125925Y101692D02*
D03*
X23431Y148818D02*
D03*
X28430Y148818D02*
D03*
X8431Y148817D02*
D03*
X18430Y148818D02*
D03*
X13431Y148818D02*
D03*
X28429Y161219D02*
D03*
X23429Y161219D02*
D03*
X13429D02*
D03*
X18429Y161219D02*
D03*
X8430Y161219D02*
D03*
X13432Y136416D02*
D03*
X18432Y136416D02*
D03*
X8433Y136416D02*
D03*
X28432Y136416D02*
D03*
X23432Y136416D02*
D03*
X3433Y136416D02*
D03*
X3430Y161219D02*
D03*
X3432Y148817D02*
D03*
X193419D02*
D03*
X193420Y161219D02*
D03*
X193417Y136416D02*
D03*
X173418Y136416D02*
D03*
X168419Y136416D02*
D03*
X188418Y136416D02*
D03*
X178419Y136416D02*
D03*
X183418Y136416D02*
D03*
X188421Y161219D02*
D03*
X178421Y161219D02*
D03*
X183421Y161219D02*
D03*
X173421D02*
D03*
X168421Y161219D02*
D03*
X183420Y148818D02*
D03*
X178420Y148818D02*
D03*
X188419Y148817D02*
D03*
X168420Y148818D02*
D03*
X173420Y148818D02*
D03*
X163422Y161219D02*
D03*
X33428D02*
D03*
X133423Y161219D02*
D03*
X138423Y161219D02*
D03*
X143423Y161219D02*
D03*
X153423D02*
D03*
X148423Y161219D02*
D03*
X158422Y161219D02*
D03*
X103425Y161219D02*
D03*
X108424Y161219D02*
D03*
X113424Y161219D02*
D03*
X123424D02*
D03*
X118424Y161219D02*
D03*
X128424Y161219D02*
D03*
X73426Y161219D02*
D03*
X78426Y161219D02*
D03*
X83426Y161219D02*
D03*
X93426D02*
D03*
X88426Y161219D02*
D03*
X98425Y161219D02*
D03*
X43428Y161219D02*
D03*
X48427Y161219D02*
D03*
X53427Y161219D02*
D03*
X63427D02*
D03*
X58427Y161219D02*
D03*
X68427Y161219D02*
D03*
X38428Y161219D02*
D03*
X68426Y173620D02*
D03*
X58427Y173620D02*
D03*
X63427Y173620D02*
D03*
X53427D02*
D03*
X48427Y173620D02*
D03*
X43427Y173620D02*
D03*
X98425Y173620D02*
D03*
X88426Y173620D02*
D03*
X93425Y173620D02*
D03*
X83425D02*
D03*
X78426Y173620D02*
D03*
X73426Y173620D02*
D03*
X128423Y173620D02*
D03*
X118424Y173620D02*
D03*
X123424Y173620D02*
D03*
X113424D02*
D03*
X108424Y173620D02*
D03*
X103425Y173620D02*
D03*
X148423Y173620D02*
D03*
X153422Y173620D02*
D03*
X143422D02*
D03*
X138423Y173620D02*
D03*
X133423Y173620D02*
D03*
X133423Y186021D02*
D03*
X138422Y186021D02*
D03*
X143422Y186021D02*
D03*
X153422D02*
D03*
X148422Y186021D02*
D03*
X103424Y186021D02*
D03*
X108424Y186021D02*
D03*
X113423Y186021D02*
D03*
X123423D02*
D03*
X118424Y186021D02*
D03*
X128423Y186021D02*
D03*
X73426Y186021D02*
D03*
X78425Y186021D02*
D03*
X83425Y186021D02*
D03*
X93425D02*
D03*
X88425Y186021D02*
D03*
X98425Y186021D02*
D03*
X43427Y186021D02*
D03*
X48427Y186021D02*
D03*
X53426Y186021D02*
D03*
X63426D02*
D03*
X58427Y186021D02*
D03*
X68426Y186021D02*
D03*
X165926Y8859D02*
D03*
X165925Y22245D02*
D03*
X30926Y8859D02*
D03*
X30926Y22245D02*
D03*
X163421Y186021D02*
D03*
X163421Y173620D02*
D03*
X33428Y186021D02*
D03*
X33428Y173620D02*
D03*
X38427Y186021D02*
D03*
X38428Y173620D02*
D03*
X158422Y186021D02*
D03*
X158421Y173620D02*
D03*
D30*
X75925Y40807D02*
D03*
X155925D02*
D03*
X20925D02*
D03*
D31*
X80925D02*
D03*
X85925D02*
D03*
X90925D02*
D03*
X95925D02*
D03*
Y45807D02*
D03*
X90925D02*
D03*
X85925D02*
D03*
X80925D02*
D03*
X75925D02*
D03*
X160925Y40807D02*
D03*
X165925D02*
D03*
X170925D02*
D03*
X175925D02*
D03*
Y45807D02*
D03*
X170925D02*
D03*
X165925D02*
D03*
X160925D02*
D03*
X155925D02*
D03*
X25925Y40807D02*
D03*
X30925D02*
D03*
X35925D02*
D03*
X40925D02*
D03*
Y45807D02*
D03*
X35925D02*
D03*
X30925D02*
D03*
X25925D02*
D03*
X20925D02*
D03*
D32*
X133425Y81614D02*
D03*
X23425Y81614D02*
D03*
X53425Y128858D02*
D03*
D33*
X133425Y91614D02*
D03*
X143425Y81614D02*
D03*
Y91614D02*
D03*
X153425Y81614D02*
D03*
Y91614D02*
D03*
X163425Y81614D02*
D03*
Y91614D02*
D03*
X173425Y81614D02*
D03*
Y91614D02*
D03*
X83425Y91614D02*
D03*
Y81614D02*
D03*
X73425Y91614D02*
D03*
Y81614D02*
D03*
X63425Y91614D02*
D03*
Y81614D02*
D03*
X53425Y91614D02*
D03*
Y81614D02*
D03*
X43425Y91614D02*
D03*
Y81614D02*
D03*
X33425Y91614D02*
D03*
Y81614D02*
D03*
X23425Y91614D02*
D03*
X53425Y138858D02*
D03*
X63425Y128858D02*
D03*
Y138858D02*
D03*
X73425Y128858D02*
D03*
Y138858D02*
D03*
X83425Y128858D02*
D03*
Y138858D02*
D03*
X93425Y128858D02*
D03*
Y138858D02*
D03*
X103425Y128858D02*
D03*
Y138858D02*
D03*
X113425Y128858D02*
D03*
Y138858D02*
D03*
X123425Y128858D02*
D03*
Y138858D02*
D03*
X133425Y128858D02*
D03*
Y138858D02*
D03*
X143425Y128858D02*
D03*
Y138858D02*
D03*
D34*
X100925Y40807D02*
D03*
Y45807D02*
D03*
X105925D02*
D03*
Y40807D02*
D03*
X110925Y45807D02*
D03*
Y40807D02*
D03*
X115925Y45807D02*
D03*
Y40807D02*
D03*
X120925Y45807D02*
D03*
Y40807D02*
D03*
X193420Y161219D02*
D03*
X193419Y148817D02*
D03*
X193417Y136416D02*
D03*
X3430Y136416D02*
D03*
X3428Y148817D02*
D03*
X3427Y161219D02*
D03*
X165919Y173620D02*
D03*
X165918Y186021D02*
D03*
X30931Y173620D02*
D03*
X30931Y186021D02*
D03*
D35*
X13780Y13780D02*
D03*
X183071D02*
D03*
Y183071D02*
D03*
X13780D02*
D03*
D36*
X23425Y73484D02*
D03*
X33425D02*
D03*
X43425D02*
D03*
X53425D02*
D03*
X63425D02*
D03*
X73425D02*
D03*
X83425D02*
D03*
X23425Y99744D02*
D03*
X33425D02*
D03*
X43425D02*
D03*
X53425D02*
D03*
X63425D02*
D03*
X73425D02*
D03*
X83425D02*
D03*
X173425Y99744D02*
D03*
X163425D02*
D03*
X153425D02*
D03*
X143425D02*
D03*
X133425D02*
D03*
Y73484D02*
D03*
X143425D02*
D03*
X153425D02*
D03*
X163425D02*
D03*
X173425D02*
D03*
X53425Y120728D02*
D03*
X63425D02*
D03*
X73425D02*
D03*
X83425D02*
D03*
X93425D02*
D03*
X103425D02*
D03*
X113425D02*
D03*
X123425D02*
D03*
X133425D02*
D03*
X143425D02*
D03*
Y146988D02*
D03*
X133425D02*
D03*
X123425D02*
D03*
X113425D02*
D03*
X103425D02*
D03*
X93425D02*
D03*
X83425D02*
D03*
X73425D02*
D03*
X63425D02*
D03*
X53425D02*
D03*
X183425Y73484D02*
D03*
Y99744D02*
D03*
X153425Y146988D02*
D03*
Y120728D02*
D03*
X43425Y146988D02*
D03*
Y120728D02*
D03*
X13425Y99744D02*
D03*
Y73484D02*
D03*
D37*
X192244Y86614D02*
D03*
X162244Y133858D02*
D03*
X34606D02*
D03*
X4606Y86614D02*
D03*
D38*
X49213Y58464D02*
D03*
Y62401D02*
D03*
X147638D02*
D03*
Y58464D02*
D03*
M02*
