M48
;Layer_Color=9474304
;FILE_FORMAT=2:5
INCH,LZ
;TYPE=PLATED
T1F00S00C0.02756
T2F00S00C0.03937
;TYPE=NON_PLATED
T3F00S00C0.12598
%
T01
X0155925Y0040807
X0160925
X0165925
X0170925
X0175925
Y0045807
X0170925
X0165925
X0160925
X0155925
X0120925
X0115925
X0110925
X0105925
X0100925
X0095925
Y0040807
X0090925
X0085925
X0080925
X0075925
Y0045807
X0080925
X0085925
X0090925
X0100925Y0040807
X0105925
X0110925
X0115925
X0120925
X0040925
X0035925
X0030925
X0025925
X0020925
Y0045807
X0025925
X0030925
X0035925
X0040925
X000343Y0136416
X0003428Y0148817
X0003427Y0161219
X0030931Y017362
X0030931Y0186021
X0165918Y0186021
X0165919Y017362
X019342Y0161219
X0193419Y0148817
X0193417Y0136416
T02
X0133425Y0081614
Y0091614
X0143425Y0091614
Y0081614
X0153425
Y0091614
X0163425
Y0081614
X0173425
Y0091614
X0143425Y0128858
X0133425
X0123425
X0113425
X0103425
X0093425
X0083425
X0073425
X0063425
X0053425
X0053425Y0091614
X0063425
X0073425
X0083425
Y0081614
X0073425
X0063425
X0053425
X0043425
Y0091614
X0033425
Y0081614
X0023425
Y0091614
X0053425Y0138858
X0063425
X0073425
X0083425
X0093425
X0103425
X0113425
X0123425
X0133425
X0143425
T03
X0183071Y001378
X001378
Y0183071
X0183071
M30
